<?xml version="1.0" encoding="utf-8"?>
<!-- Generator: Adobe Illustrator 26.0.0, SVG Export Plug-In . SVG Version: 6.00 Build 0)  -->
<svg version="1.1" id="Capa_1" xmlns="http://www.w3.org/2000/svg" xmlns:xlink="http://www.w3.org/1999/xlink" x="0px" y="0px"
	 viewBox="0 0 644 532" style="enable-background:new 0 0 644 532;" xml:space="preserve">
<style type="text/css">
	.st0{fill:#FFFFFF;}
	.st1{fill:#FF0000;}
	.st2{fill:#020100;}
	.st3{fill:#644826;}
	.st4{fill:#FEFEFE;}
	.st5{fill:#3E322F;}
	.st6{fill:#100E0B;}
	.st7{fill:#FCA647;}
	.st8{fill:#0C0A07;}
	.st9{fill:#D16832;}
	.st10{fill:#0A0703;}
	.st11{fill:#020201;}
	.st12{fill:#140D05;}
	.st13{fill:#15130A;}
	.st14{fill:#3F2E2A;}
	.st15{fill:#30230D;}
	.st16{fill:#0A0705;}
	.st17{fill:#0F0A04;}
	.st18{fill:#110B04;}
	.st19{fill:#070502;}
	.st20{fill:#11120F;}
	.st21{fill:#181607;}
	.st22{fill:#191513;}
	.st23{fill:#FEA545;}
	.st24{fill:#FDB158;}
	.st25{fill:#EFEBEE;}
	.st26{fill:#DF7E37;}
	.st27{fill:#13171A;}
	.st28{fill:#3F3230;}
	.st29{fill:#131719;}
	.st30{fill:#3E3230;}
	.st31{fill:#FDA546;}
	.st32{fill:#111211;}
	.st33{fill:#E6853B;}
	.st34{fill:#131619;}
	.st35{fill:#FBAF56;}
	.st36{fill:#E1853D;}
	.st37{fill:#83665F;}
	.st38{fill:#FBB95A;}
	.st39{fill:#FCB95B;}
	.st40{fill:#12110F;}
	.st41{fill:#FAB257;}
	.st42{fill:#DF853F;}
	.st43{fill:#433634;}
	.st44{fill:#DF7E38;}
	.st45{fill:#FAB85B;}
	.st46{fill:#11100F;}
	.st47{fill:#FAD88E;}
	.st48{fill:#F9D890;}
	.st49{fill:#FAEDB8;}
	.st50{fill:#0E0D0D;}
	.st51{fill:#3F312E;}
	.st52{fill:#F9E9B6;}
	.st53{fill:#FBECB8;}
	.st54{fill:#11110F;}
	.st55{fill:#80645E;}
	.st56{fill:#82665E;}
	.st57{fill:#0F0D0C;}
	.st58{fill:#856660;}
	.st59{fill:#82685F;}
	.st60{fill:#3F3130;}
	.st61{fill:#382B27;}
	.st62{fill:#3D302D;}
	.st63{fill:#3D312D;}
	.st64{fill:#775D58;}
	.st65{fill:#BEADA4;}
	.st66{fill:#DC7D38;}
	.st67{fill:#826461;}
	.st68{fill:#DACAC6;}
	.st69{fill:#7D625A;}
	.st70{fill:#84665E;}
	.st71{fill:#82685D;}
	.st72{fill:#F9D68E;}
	.st73{fill:#3E312E;}
	.st74{fill:#80635A;}
	.st75{fill:#291D10;}
	.st76{fill:#392E19;}
	.st77{fill:#7F623D;}
	.st78{fill:#3A2E2A;}
	.st79{fill:#2F2518;}
	.st80{fill:#995C22;}
	.st81{fill:#BF7330;}
	.st82{fill:#FDA645;}
	.st83{fill:#CF6831;}
	.st84{fill:#FDB157;}
	.st85{fill:#3F312B;}
	.st86{fill:#FBA647;}
	.st87{fill:#FCA547;}
	.st88{fill:#CE6931;}
	.st89{fill:#FAB759;}
	.st90{fill:#FBB859;}
	.st91{fill:#FAD58C;}
	.st92{fill:#A37439;}
	.st93{fill:#A7793E;}
	.st94{fill:#CE6932;}
	.st95{fill:#F3A34B;}
	.st96{fill:#291C0C;}
	.st97{fill:#110C06;}
	.st98{fill:#A37D3E;}
	.st99{fill:#9E7A2B;}
	.st100{fill:#533D1E;}
	.st101{fill:#4B231B;}
	.st102{fill:#3E302E;}
	.st103{fill:#3D312E;}
	.st104{fill:#83635F;}
	.st105{fill:#83665D;}
	.st106{fill:#836660;}
	.st107{fill:#3F322B;}
	.st108{fill:#41322E;}
	.st109{fill:#85655B;}
	.st110{fill:#795F53;}
	.st111{fill:#3A2B25;}
	.st112{fill:#7E5424;}
	.st113{fill:#573016;}
	.st114{fill:#5F4219;}
	.st115{fill:#CC682E;}
	.st116{fill:#372612;}
	.st117{fill:#66451D;}
	.st118{fill:#85665A;}
	.st119{fill:#966F3A;}
	.st120{fill:#DF7F38;}
	.st121{fill:#7A5D50;}
	.st122{fill:#3D1D0B;}
	.st123{fill:#FDA647;}
	.st124{fill:#0D0701;}
	.st125{fill:#FBEBB4;}
	.st126{fill:#33210F;}
	.st127{fill:#0B0703;}
	.st128{fill:#251609;}
	.st129{fill:#0D0804;}
	.st130{fill:#291B0B;}
	.st131{fill:#2A160A;}
	.st132{fill:#0A0805;}
	.st133{fill:#F8D386;}
	.st134{fill:#2A2214;}
	.st135{fill:#282313;}
	.st136{fill:#130F08;}
	.st137{fill:#3C2415;}
	.st138{fill:#5C4A2B;}
	.st139{fill:#3E2911;}
	.st140{fill:#3F312F;}
	.st141{fill:#101011;}
	.st142{fill:#020202;}
	.st143{fill:#F2AC56;}
	.st144{fill:#351E0C;}
	.st145{fill:#33240D;}
	.st146{fill:#352917;}
	.st147{fill:#23170C;}
	.st148{fill:#221807;}
	.st149{fill:#0F0703;}
	.st150{fill:#090602;}
	.st151{fill:#160E05;}
	.st152{fill:#090601;}
	.st153{fill:#BB7D2F;}
	.st154{fill:#39240B;}
	.st155{fill:#3A1E0B;}
	.st156{fill:#DE7E37;}
	.st157{fill:#29200E;}
	.st158{fill:#E6E1E3;}
</style>
<g>
	<path d="M252.35,422.02c-3.7,1.74-6.67,4.41-9.79,7.01c-8.59,7.15-21.11,8.17-30.29,2.34c-3.48-2.21-6.99-3.57-10.96-4.11
		c-9.32-1.26-17.86-4.81-25.68-9.76c-3.52-2.23-3.64-0.71-4.18,1.95c-2.18,10.69-6.97,20.08-14.57,27.88
		c-9.73,9.98-21.5,12.8-34.76,8.83c-16-4.79-26.47-15.3-32.31-30.97c-7.22-19.39-7.36-37.97,6.49-54.43
		c11.38-13.52,26.76-18.71,43.98-15.47c11.87,2.23,19.08,11.44,24.84,21.55c1.4,2.46,1.88,5.96,6.07,5.26
		c3.94-0.65,6.61-2.7,7.94-6.56c-12.48-3.03-20.62-12.28-29.63-19.9c-14.46-12.23-26.17-26.94-35.27-43.61
		c-1.23-2.26-2.8-2.65-5.11-2.89c-12.45-1.28-24.65-3.83-36.05-9.16c-8.27-3.87-15.61-8.85-18.17-18.53
		c-1.22-4.6-0.45-8.88,1.11-13.16c0.3-0.82,0.26-2.26,1.8-1.6c0.94,0.4,0.87,1.3,0.54,2.14c-2.07,5.34-2.57,10.71,0.33,15.89
		c3.39,6.04,8.82,9.8,14.94,12.72c11.7,5.6,24.21,7.94,37.8,9.7c-11.42-22.95-17.53-46.63-18.31-71.93
		c-3.74,0.99-6.21,3.8-9.23,5.64c-0.9,0.55-1.85,1.89-2.94,0.41c-1.2-1.64,0.65-2.09,1.42-2.41c9.39-4.03,11.56-11.32,11.39-21.01
		c-0.22-12.47,3.63-24.54,6.25-36.7c2.68-5.37,1.69-11.63,4.13-17.06c1.96-1.19,2.88-3.15,3.81-5.12
		c15.67-33.33,39.95-58.65,72.07-76.35c12.37-6.82,25.39-12.46,39.56-14.73c1.91,0.2,3.66,0.63,4.02,2.94
		c-0.63,1.87-2.3,2.16-3.9,2.53c-4.97,1.17-9.73,2.94-14.36,5.07c-1.13,0.26-2.33,0.15-3.44,0.56
		c-15.78,6.06-30.32,14.23-43.48,24.88c-2.18,1.76-3.52,3.45-2.31,6.28c0,4.35-3.42,6.62-5.9,9.38
		c-5.74,6.37-10.26,13.76-16.68,19.55c-1.89,1.7-3.76,3.25-6.49,3.11c-2.56-0.31-3.92,1.19-5.13,3.17
		c-12.97,21.21-20.93,44.11-23.29,68.89c-0.34,3.61-1.62,7.18-0.76,10.87c0.03,0.14,0.18,0.31,0.31,0.34
		c0.14,0.04,0.32-0.07,0.47-0.16c1.53-3.35,1.96-7.08,3.72-10.27c0.69-1.24,1.78-4.1,3.55-0.59c-0.17,3.01-1.96,5.61-2.29,9.13
		c4.81-2.41,9.36-4.26,12.03-9.19c6.17-11.37,15.48-19.4,27.36-24.5c11.73-4.5,23.63-5.34,35.62-1.33
		c4.29,1.43,8.19,0.36,12.17-0.85c1.27-0.23,2.21-1.18,3.42-1.54c3.33-0.71,6.79-0.94,9.8-2.76c0.46-0.21,0.94-0.36,1.43-0.47
		c2.75-0.47,5.48-1.04,8.14-1.9c4.35-1.04,8.66-2.22,13.01-3.23c1.72-0.4,3.55-0.36,3.99,1.76c0.4,1.94-1.38,2.4-2.78,2.87
		c-2.83,0.94-5.76,1.5-8.64,2.25c-2.46,1.63-6.94-0.34-7.7,4.33c-0.33,0.31-0.71,0.5-1.16,0.58c-2.45-0.53-4.86-1.79-7.41-0.39
		c-1.26,0.37-2.58,0.64-1.58,2.49c0.43,0.79,0.23,1.51-0.74,1.85c-3.21-0.45-6.43-3.33-9.95,0.35
		c13.05,8.45,21.42,20.26,24.61,35.41c2.63,12.44,0.97,24.43-5.04,35.74c-6.78,12.45-16.64,21.36-30.06,26.2
		c-19.61,6.23-37.35,2.71-53.03-10.53c-7.11-6-11.98-13.66-15.02-22.46c-3.75-10.1-3.96-20.47-1.89-31.01
		c-6.29,0.91-8.2,3.21-8.59,8.9c-1.07,15.83,3.12,29.9,13.17,42.3c10.71,13.21,24.73,19.86,41.37,21.11
		c7.44,0.56,14.96,0.48,22.31-1.4c1.39,1.53,2.9,1.94,4.85,0.87c0.97-0.53,2.18-0.65,3.22-1.15c27.79-10.52,41.67-31.29,44.33-60.25
		c0.51-5.51-0.88-10.92-1.85-16.32c-0.37-2.07-1.48-4.18,0.23-6.19c2.95,0.07,3.19,2.59,3.68,4.5c6.21,23.89,2.62,45.84-13.19,65.31
		c-5.31,6.55-11.81,11.66-18.97,16.02c-2.88,1.75-5.88,3.07-8.27,3.31c4.99-1.37,10.97-2.93,16.93,0.18
		c2.73,6.78,5.61,13.47,9.94,19.46c2.86,3.97,6.27,7.32,10.16,10.22c1.27,0.95,2.47,1.62,4.03,0.45c6.13-4.6,13.11-7.87,19.25-12.51
		c7.4-5.59,13.19-12.66,19.19-19.55c4.35-5,5.55-5.34,10.68-1.5c3.34,2.5,6.72,4.95,10.39,6.9c3.25,1.72,4.39,3.96,3.76,7.71
		c-0.99,5.9-0.16,11.55,4.45,16.97c0.34-4.78,2.37-4.06,4.78-2.24c1.24,0.94,2.7,1.43,4.23,1.12c5.68-1.15,11.23,0.51,16.86,0.67
		c6.25,1.42,11.68,4.69,17.18,7.78c2.5,1.4,4.09,3.38,3.62,6.49c-0.61,2.14-1.83,4.01-4.2,2.73c-4.66-2.53-9.94-3.45-14.57-5.98
		c-0.28-0.9,0.18-1.44,0.88-1.87c1.47-0.62,2.91-0.4,4.35,0.25c-18.5-7.96-35.4-4.33-51.24,6.98c-7.62,6.42-12.71,14.42-15.19,24.08
		c-3.29,10.65-2.46,21.02,1.99,31.16c4.86,12.34,13.29,21.18,25.67,26.14c-0.03-0.02-0.01-0.1-0.04-0.12
		c-18.47-11.67-27.43-27.83-23.7-50.02c0.11-0.97,0.29-1.92,0.53-2.86c0.9-3.34,1.8-6.67,3.02-9.92c1.33-2.79,2.59-5.64,4.45-8.13
		c1.12-1.5,2.01-3.52,4.53-2.93c1.23,2.53-0.59,4.38-1.5,6.39c-1.02,2.24-2.13,4.43-2.78,6.82c-0.82,2.63-1.39,5.33-2.03,8.01
		c-1.17,3.75-0.17,7.42,0.39,11.1c1.74,13.55,8.98,24.05,22.02,32.16c-7.1-7.4-11.72-16.38-13.23-26.92
		c-0.43-2.3-1.02-4.57-1.32-6.89c-0.16-2.22-0.18-4.45-0.15-6.67c0.02-0.66-0.03-1.33,0.03-1.98c0.17-1.75-0.3-4.42,1.73-4.66
		c2.28-0.27,1.66,2.68,2.49,4.12c3.19,6.69,4.34,13.76,4.82,21.16c0.41,6.27,4,11.53,8.22,16.19c1.49,1.64,3.47,2.28,5.45,1.73
		c5.58-1.56,11.38-2.18,16.85-4.28c5.33-2.05,8.21-6.01,9.82-11.15c1.24-3.97,2.07-8.04,2.9-12.13c0.54-2.68,1.03-5.88,5.16-5.2
		c2.99,6.3,0.19,12.16-2.03,17.68c-4.24,10.53-11.69,17.65-23.66,18.75c-1.64,0.15-3.31,0.31-4.89,0.93
		c3.47,2.04,8.51,2.15,13.38,0.31c16.77-6.34,28.38-27.22,24.99-44.9c-0.44-2.29-1.12-4.53-1.43-6.83c-0.2-1.51-0.96-3.48,1.68-3.83
		c3.18,3.29,2.68,7.8,3.9,11.73c2.31,22.09-8.04,37.17-26.29,47.79c11.02,0.77,23.62-8.11,28.43-18.64
		c2.48-5.43,4.81-10.96,5.9-16.9c0.13-0.5,0.33-0.97,0.58-1.42c2.12-2.54-0.2-6.37,2.53-8.72c1.99,12.22-1.14,23.45-7.72,33.49
		c-16.77,25.61-45.29,32.94-71.76,18.74c-7.56-4.05-13.4-10.13-18.13-17.26c-5.03,3.57-10.47,6.14-16.48,7.46
		c-0.92-4.19,2.71-5.08,5.01-6.93c2.27-1.83,6.45-1.6,7.14-4.64c0.57-2.52-1.72-5.19-2.52-7.88c-1.52-5.08-2.42-10.27-2.96-15.54
		c0.61-5.79,1.27-11.58,2.6-17.24c2.08-8.85,6.96-16.05,13.61-22.2c3.28-3.03,2.98-3.7-1.22-5.22c-4.86-1.76-9.88-2.94-14.9-4.11
		c-3.04-0.98-6.11-1.41-9.27-0.62c-7.09,1.79-9.41,6.25-6.7,12.95c0.37,0.92,0.84,1.8,1.29,2.69c2.08,4.45,5.12,8.21,8.91,11.22
		c6.22,4.95,6.21,11.87,4.59,18.17c-1.55,6.05-6.97,9.52-13.36,10.45c-10.41,1.51-18.42-2.56-24.62-10.87
		c-0.06,0.02,0.21,0.15,0.32,0.54c2.58,9.2,9.83,14.95,15.92,21.56c3.27,5.48,8.58,9.37,11.63,15.06
		C248.62,421.07,251.15,420.51,252.35,422.02z"/>
	<path class="st2" d="M423.31,241.29c-0.36,4.53-0.53,9.08-1.19,13.56c-0.23,1.56-1.47,3.5-0.2,4.48c1.43,1.1,3.65,1.25,5.35-0.32
		c3.21-0.45,6.39-1.38,9.68-0.66c1.42,1.02,3.15,1.44,4.64,2.34c1.58,1.79,1.62,3.39-0.94,4.02c-3.98,0.98-7.9,2.47-12.13,1.92
		c-0.78-0.36-1.31-0.99-1.7-1.74c-0.65-1.25-1.52-2.22-3.09-2.06c-1.95,0.2-2.2,1.82-2.52,3.26c-1.68,7.62-3.65,15.17-5.64,22.72
		c-2.9,1.68-3.88,4.18-3.16,7.41c-1.64,1.46-1.41,4.55-4.3,4.91c-0.51-0.44-0.82-1.03-1.21-1.56c-1.03-1.42-2.59-1.67-4-1.12
		c-2.13,0.83,0.07,2.2-0.14,3.33c-0.09,0.49-0.16,0.97-0.42,1.4c-0.64,0.47-1.35,0.61-2.13,0.51c-0.78-0.17-1.41-0.58-1.97-1.13
		c-0.44-0.5-0.91-0.97-1.3-1.5c-2.81-3.73-2.41-4.52,2.2-5.89c2.44-0.73,5.5,0.59,7.33-2.14c2.78-4.45,4.2-9.48,5.49-14.44
		c3.49-13.5,7.88-26.86,6.96-41.14c-0.27-4.21,1.75-8.48-0.31-13.39c-2.83,8.15-7.25,14.56-13.1,20.18
		c-9.3,8.95-20.42,12.81-33.05,13.1c-1,0.02-2.01,0-2.99-0.2c-1.5-0.3-3.31-0.71-3.18-2.53c0.13-1.92,2.11-1.73,3.54-1.87
		c1.98-0.19,4.01,0.07,5.95-0.54c20.8-3.27,33.61-15.43,39.25-35.12c-1.44,2.96-1.49,3.13-4.23,2.28c-2.07-0.64-3.92-0.1-5.87,0.27
		c-11.47,2.21-20.94-1.26-28.61-9.99c-6.31-7.18-11-15.4-15.39-23.81c-2.29-5.56-3.93-11.35-4.76-17.26
		c-0.57-4.08-2.44-5.51-6.24-5.11c-9.74,1.03-19.57,1.03-29.26,2.57c-3.95,0.63-7.93,0.79-11.89,1.18
		c-3.81,0.38-5.56,1.64-4.53,5.61c0.25,0.96,0.14,1.98-0.18,2.95c-1.93,2.55-2.52,0.46-3.15-0.98c-2.67-6.06-2.72-6.4-9.01-5.05
		c-6.74,1.44-13.93,1.06-20.17,4.65c-2.44-0.47-4.88-0.69-7.38-0.34c-1.3,0.18-2.86,0.01-3.31-1.55c-0.51-1.8,1.05-2.46,2.29-2.57
		c4.49-0.4,2.79-4.04,3.55-6.4c1.21-1.2,2.33-0.4,2.9,0.51c2.22,3.55,5.4,3.14,8.77,2.52c4.88-0.91,9.8-1.56,14.7-2.33
		c5.01-0.78,6.15-1.97,5.35-6.95c-0.86-5.36-0.01-10.54,0.37-15.79c0.09-1.29,0.2-3.12,1.64-3.26c1.65-0.17,1.65,1.7,1.96,2.94
		c0.23,4.95,0.05,9.9,0.11,14.86c0.07,6.41,0.49,6.77,6.86,5.97c4.7,0.54,3.9-4.05,5.74-6.17c0.57-0.12,1.03,0.03,1.41,0.47
		c0.95,3.76,3.36,4.74,7.06,4.29c8.86-1.08,17.76-1.95,26.7-1.95c3.26,0,4.32-1.49,4.41-4.53c0.06-1.94-0.55-4.5,2.45-5.16
		c1.5,1.59,1.15,3.62,1.32,5.53c0.02,4.49,3.18,4.27,6.25,4.14c3.53-0.15,3.11-2.72,3.01-5.04c-0.34-7.83,0.37-15.5,3.21-22.88
		c1.09-2.6,2.54-5.03,3.98-7.73c-8.29,2.62-12.27,8.75-14.67,16.34c-0.64,2.02-0.55,4.34-2.28,5.95c-3.19-1.18-2.1-3.81-1.71-5.87
		c1.62-8.42,5.9-15.16,13.7-19.05c3.64-1.81,3.4-3.24,0.63-5.47c-1.28-1.04-2.43-2.26-3.52-3.5c-5.52-6.23-11.92-9.93-20.59-7.46
		c-1.13,0.32-2.31,0.19-3.34-0.52c-0.32-0.4-0.42-0.86-0.3-1.36c1.65-1.41,3.39-2.33,5.54-1.2c-4.87-2.59-10-4.43-15.71-4.27
		c-0.87-2.06-2.4-3.17-4.49-4.11c-8.51-3.82-17.64-5.56-26.19-8.05c3.57,3.06,3.44,6.44-0.89,7.45c-7.59,1.76-15.43,1.69-23.17,2.32
		c-1.27,0.1-3.21-0.01-2.87-2.36c1.26-1.28,2.88-1.56,3.83-1.65c-11.84-1.76-24.31-0.22-36.79,1.12
		c-14.33,1.54-28.12,5.2-41.51,10.46c-2.3,0.9-4.5,2.24-7.12,2.08c-0.82-0.2-1.45-0.61-1.64-1.5c0.74-2.36,2.97-2.96,4.81-3.97
		c12.55-6.88,25.85-11.7,39.95-14.24c1.69,0.13,3.34-0.34,4.32-0.43c-1.77,0.83-4.46-0.12-6.89,0.94
		c-15.58,2.99-30.71,7.25-44.61,15.18c-17.2,9.82-32.21,22.15-44.12,38.09c-1.59,2.13-3.03,4.39-4.98,6.22
		c-0.57,0.53-1.22,1.29-2.13,0.7c-0.79-0.51-0.86-1.43-0.7-2.24c0.61-2.99,2.24-5.53,3.87-8.04c10.65-16.44,24.19-30.01,40.95-40.17
		c3.51-2.13,5.72-6.2,10.23-6.76c6.87-2.01,13.23-5.35,20.1-7.38c35.45-10.43,70.86-10.29,106.26,0.16
		c1.42,0.42,2.81,1.03,4.14,1.71c2.53,1.16,5.26,1.85,7.76,3.12c-1.84-0.92-3.73-1.73-5.72-2.31c-8.22-3.52-16.71-6.26-25.27-8.79
		c-1.98-0.59-4.4-0.54-5.34-3.02c-0.18-1.58,0.6-2.49,2.04-2.95c3.82-0.78,7.14,1.07,10.6,2.11c26.3,7.88,48.94,21.9,68.43,41.08
		c3.45,3.39,6.57,6.28,12.06,4.9c2.83-0.71,5.83,0.96,8.78,1.36c1.76,1.7,4.38,3.16,1.71,6.1c-0.83,0.19-1.62,0.07-2.4-0.24
		c-9.43-3.68-13.2-2.57-18.74,5.55c-3.54,8.07-5.12,16.43-3.75,25.23c0.34,2.22,0.81,4.49,3.83,4.13c2.75-0.34,2.65-2.62,2.66-4.6
		c0.02-3.04,0.5-5.91,1.89-8.66c3.37-6.62,9.47-8.37,15.74-4c6.71,4.68,10.01,11.79,12.62,19.25c0.44,1.25,0.64,2.58,1.03,3.85
		c2.09,6.47,1.73,13.13,1.22,19.72c-0.38,4.97-2.35,9.42-7.5,11.4c-5.14,1.97-9.09-0.75-12.53-3.96
		c-5.34-5.01-8.14-11.58-10.3-18.44c-0.57-2.38-0.99-4.81-1.79-7.14c-0.63-1.84-1.97-2.65-3.83-2.16c-2.04,0.54-1.55,2.2-1.27,3.64
		c0.44,2.26,1.13,4.44,1.91,6.61c2.68,8.64,7,16.43,12.4,23.64c3.45,4.16,7.53,7.41,12.71,9.17c4.8,1.63,8.79,0.25,12.2-3.23
		c1.75-1.79,3.34-3.8,4.11-6.16c2.66-8.24,4.29-16.63,2.85-25.34c-0.23-3.17-2.12-4.49-5.08-5.11c-1.88-0.39-4.64-0.29-4.35-3.57
		c0.75-1.1,1.96-1.47,3.08-1.26c5.49,1.02,4.29-2.09,3.32-5.16c-2.83-8.95-6.57-17.44-12.51-24.83c-1.03-1.28-2.26-2.51-2.01-4.4
		c3.19-6.46,2.67-13.66,4.08-20.47c0.06-1.39,0.19-2.76,1.02-3.95c0.73-0.63,1.48-0.74,2.26-0.08c-1.14,8.01-2.21,16.02-3.51,24
		c-0.2,1.2,0.07,1.7,0.74,2.5c7.62,9.12,12.01,19.84,14.6,31.26c0.72,3.18,2.09,4.4,4.95,5.11c7.29,1.8,14.27,4.45,20.52,8.67
		c0.91,0.62,3.61,0.81,2.22,2.88c-1.01,1.51-2.35-0.06-3.39-0.76c-5.86-3.93-12.43-6.21-19.09-8.33c-2.56-0.81-4.01-0.92-3.46,2.7
		c1.43,9.36,0.5,18.56-2.78,27.49c-1.41,3.85,0.61,7.5,0.85,11.26c0.22,3.31,0.74,6.6,0.57,9.93
		C423.95,226.95,423.91,234.12,423.31,241.29z"/>
	<path class="st3" d="M269.45,477.64c28.16-0.18,56.28,0.64,84.32,3.41c9.75,0.97,19.54,2.03,28.92,5.1
		c1.74,0.57,4.46,0.85,4.29,3.41c-0.14,2.07-2.54,2.48-4.21,3.02c-10.21,3.27-20.83,4.29-31.41,5.31
		c-36.53,3.53-73.18,3.82-109.82,2.97c-27.11-0.63-54.25-1.4-80.97-6.87c-2.43-0.5-4.78-1.38-7.13-2.19
		c-1.1-0.38-2.28-1.04-2.24-2.39c0.04-1.56,1.39-2.14,2.64-2.67c5.26-2.25,10.87-3.06,16.45-3.84c30.41-4.21,61-5.22,91.65-5.26
		C264.45,477.63,266.95,477.64,269.45,477.64z"/>
	<path class="st4" d="M488.83,271.9c9.13-4.36,18.27-7.65,28.66-3.95c7.39,2.64,15.2,3.47,23.09,3.24c1.21-0.04,2.95-0.75,3.51,0.9
		c0.49,1.45-1.05,2.27-1.92,3.24c-0.11,0.12-0.23,0.24-0.35,0.35c-5.55,5.11-5.56,5.13,0.88,9.6c12.9,8.97,27.31,14.29,42.55,17.61
		c0.97,0.21,1.95,0.4,2.91,0.66c0.47,0.13,0.91,0.38,1.54,0.64c-0.18,0.43-0.24,0.99-0.53,1.18c-21.86,14.75-45.76,23.87-72.32,23.6
		c-13.24-0.13-24.44-6.53-33.27-16.61c-0.65-1.49-0.26-2.97,0.25-4.36c3.5-9.51,4.28-19.35,3.89-29.37
		C487.64,276.35,487.33,273.95,488.83,271.9z"/>
	<path d="M488.83,271.9c1.97,13.96,0.52,27.48-5.25,40.45c-4.5,9.55-10.01,18.39-18.73,24.65c-5.31,3.82-11.13,5.2-17.04,1.13
		c-1.19-0.82-2.13-0.43-3.24-0.39c-3.79,0.14-7.21-0.69-9.85-3.74c-2.49-2.88-6.64-2.62-9.55-5.02c-2.73-2.25-5.28-4.07-3.8-8.11
		c0.36-0.99-0.64-1.39-1.14-1.99c-0.17-0.93,0.4-1.25,1.16-1.43c3.31,0.27,5.13,2.7,7.11,4.91c3.03,3.37,4.04,3.33,6.81-0.3
		c0.6-0.79,1.14-1.62,1.67-2.46c2.44-3.82,2.43-3.95-2.14-4.46c-2.97-0.33-5.36-1.61-7.35-3.7c-2.57-2.7-5.6-4.59-9.15-5.7
		c-5.64-1.68-7.18-4.13-6.15-9.76c-2.62-4.34-1.98-5.85,2.96-6.99c2.32-0.63,4.67-0.33,7.01-0.2c3.83,0.96,7.78,1.22,11.69,1.41
		c5.44,0.26,7.1,2.1,6.22,7.55c-0.34,2.1-1.51,4.06-1.2,6.34c2.92-1.94,5.66-8.06,5.89-13.8c0.18-4.48,0.42-8.99-0.43-13.45
		c-0.34-1.81-0.45-3.61,1.57-5.27c3.25,4.3,3.47,9.13,3.51,13.87c0.03,3.07,1,4.33,4.12,4.89c6.92,1.24,8.57,3.73,8.04,10.68
		c-0.18,2.43-0.28,4.86-1.35,7.13c2.72-5.39,5-10.91,6.21-16.81c1.17-5.71-0.7-11.8,1.84-18.54c2.9,4.62,2.7,8.64,3.21,12.5
		c0.17,1.24-0.46,2.95,1.13,3.51c1.27,0.44,1.93-1.01,2.76-1.77c0.49-0.45,0.96-1.21,1.54-1.22c6.22-0.06,4.23-4.29,3.87-7.6
		c-0.43-3.98-1.7-7.8-2.42-11.73c-0.4-1.41-0.84-2.81-1.45-4.14c-0.95-2.45-2.32-4.67-3.65-6.93c-2.11-3.58-4.92-5.44-9.22-5.2
		c-1.7,0.1-4.03,0.71-4.76-1.97c8.99-2.34,16.23,0.7,22.16,7.4c2.91,3.29,1.88,8.18,4.56,11.7
		C487.06,268.72,487.47,270.63,488.83,271.9z"/>
	<path class="st5" d="M479.29,265.94c2.38,6.73,3.11,13.75,4.08,21.63c-3.89-2.56-6.38-1.62-8.26,1.85
		c-0.63,1.17-1.8,2.71-3.58,2.03c-1.5-0.57-1.25-2.14-1.36-3.46c-0.34-4.26-0.74-8.52-1.95-12.78c0,4.25,0.05,8.51-0.01,12.76
		c-0.06,4.38-1.44,8.5-3.07,12.47c-1.68,4.09-3.8,8-6.16,11.86c-0.51-3.78,1.24-7.16,1.29-10.82c0.11-7.56-1.1-9.74-8.65-10.27
		c-3.44-0.24-3.58-1.39-3.45-3.97c0.25-4.99-0.59-9.81-2.72-14.4c0.33,4.27,0.74,8.5,0.9,12.77c0.23,5.99-1.51,11.46-3.49,16.91
		c-0.44,1.21-1.29,2.31-2.14,3.31c-0.95,1.12-2.22,1.52-3.52,0.53c-1.21-0.92-0.59-1.97-0.21-3.12c0.83-2.5,1.57-5.04,2.14-7.61
		c0.45-2.01-0.12-3.78-2.5-3.96c-3.14-0.24-6.4-0.7-9.43-0.12c-2.31,0.44-3.03-1.99-4.92-1.64c-1.31-0.5-1.73-1.56-1.46-2.79
		c0.95-4.31,1.35-8.83,4.29-12.46c2.76-0.93,5.53,0.28,8.31,0.01c1.47-0.14,2.97-0.02,4.41-0.4c1.1-0.29,2.54-0.52,2.51-1.93
		c-0.04-1.78-1.71-1.72-2.96-1.88c-1.98-0.25-3.92,0.25-5.88,0.49c-2.1,0.26-4.3,0.73-5.91-1.34c-0.42-2.15-0.74-4.23,2.61-3.72
		c4.09-0.79,8.16-1.74,12.28-2.3c3.02-0.41,0.65-1.65,0.61-2.54c-1.9-1.02-3.3-2.59-4.63-4.26c0.46,0.75,1.43,1.25,0.77,2.35
		c-3.31-0.81-6.67,2.36-9.96-0.13c0.26-1.43,1.19-2.34,2.37-3.05c3.94-2.59,8.24-3.82,12.99-3.5c1.17,0.08,1.89-0.21,2.87-1.47
		c2.02-2.59,5.39-2.68,8.61-2.29c1.34,0.16,2.64,1.7,4.07,0.22c0.37-0.23,0.74-0.46,1.11-0.69c0.44,0.19,0.93,0.61,1.33,0.54
		c10.66-1.92,14.4,5.26,17.52,13.27c-2.27,2.13-5.54,1.64-8.42,3.27C473.07,266.27,476.26,265.22,479.29,265.94z"/>
	<path class="st6" d="M223.24,70.96c-0.8-1.79-2.39-1.94-4.05-1.93c-8.85-13.56-21.68-21.19-37.43-22.84
		c-13.2-1.38-26.12,1.11-37.74,8.26c-2.26,1.39-4.28,3.18-6.84,4.05c-3.23-0.11-2.2-2.06-1.02-3.16c2.57-2.41,2.41-4.8,0.71-7.48
		c0.09-0.5,0.34-0.89,0.75-1.19c0.75-0.29,1.47-0.21,2.18,0.14c2.14,2.36,4.12,2.68,7.3,1.1c12.14-6.02,24.93-8.8,38.5-5.81
		c2.13,0.47,4.23,0.86,6.31-0.13c5.45,3.35,10.98,6.56,17.21,8.31c0.92,0.26,1.79,1.01,3.45,0.03c-6.06-5.73-12.88-9.12-20.96-10.06
		c-7.91-3.85-16.36-2.78-24.7-2.66c-1,0.01-1.26,0.9-1.57,1.66c-0.53,1.03-0.81,2.51-2.53,1.45c-1.2-1.9-2.91-2.65-5.1-2.14
		c-7.32,1.72-14.43,3.96-20.53,8.59c-5.1,2.69-9.21,6.63-13.4,10.47c-0.29,0.27-1.36,0.16-0.77,0.96c0.18,0.25,0.88,0.26,1.25,0.61
		c-2.35,4.56-2,10.16-6.87,13.88c-3.31,2.54-4.26,7.4-5.85,11.41c-4.09,10.28-8.05,20.51-9.5,31.69
		c-1.5,11.57-1.75,23.01-0.37,34.54c0.1,0.82,0.17,1.65,0.1,1.99c0.22-2.17-0.73-4.75-0.52-7.41c0.22-2.84-0.89-5.63-0.81-8.39
		c0.43-13.72,1.65-27.37,6.29-40.43c0.55-1.55,0.99-4.2,3.95-2.85c0.71,1.47,0.41,2.95-0.07,4.36c-6.73,19.92-7.06,40.3-4.53,60.91
		c0.22,1.8,0.61,3.65-0.93,5.13c-1.33,3.53-1.44,7.29-1.85,10.97c-0.29,2.57-0.75,4.88-3.33,6.13c-2.2-1.04-2.18-3.3-2.46-5.13
		c-3.14-20.43-5.94-40.97-3.25-61.63c3.61-27.72,13.68-52.78,37.83-68.63c30.28-19.87,73.49-17.66,99.93,16.88
		c0.08,0.11,0.01,0.33,0.01,0.49c-0.43,2.36-0.16,4.71,0.12,7.07C229.29,71.6,226.4,72.83,223.24,70.96z"/>
	<path class="st7" d="M436.36,138.99c3.26-1.13,6.53-2.26,9.79-3.4c3.6-2.79,8.04-3.72,12.17-5.22
		c18.38-6.69,36.78-13.32,54.88-20.75c4.89-2.01,5.89-1.42,6.96,3.86c-0.59,2.9-2.48,5.01-4.33,7.15c-1.87,1.72-3.85,3.27-6.53,3.48
		c-3.11,1.92-6.48,1.08-9.47,0.17c-2.81-0.86-5.1-0.47-7.55,0.61c-0.61,0.27,0.54,1.03,0.22,0.45c-0.1-0.18-0.09-0.27-0.02-0.32
		c2.99-2.48,6.3-1.07,9.27-0.31c2.51,0.64,4.76,0.42,7.13-0.03c1.28,2.96-1.5,3.61-2.94,4.76c-8.44,6.69-17.92,11.76-27.17,17.18
		c-2.14,1.25-4.25,2.54-6.01,4.33c-10.55,5.17-21.86,8.48-32.63,13.12l0.11-0.06c-2.1-1.07-6.68-8.27-6.44-10.08
		c0.16-1.18,1.05-1.6,1.98-1.95c3.4-1.29,3.77-3.37,2.36-6.61C437.3,143.41,435.5,141.5,436.36,138.99z"/>
	<path class="st8" d="M409.14,106.95c-0.12,5.8-2.4,11.35-1.98,17.22c0.15,2.08-1.89,2.54-2.92,3.75c-0.97,0.78-1.72,0.09-2.5-0.36
		c-1.14-1.53-3.76-1.92-3.47-4.54c0.22-2.01-1.21-3.36-1.97-4.97c-1.53-1.9-0.42-3.84,0.01-5.7c7.28-31.21-10.28-60.09-41.61-66.91
		c-20.92-4.55-38.6,2.49-52.94,18.14c-1.56,1.7-3.17,3.4-4.39,5.4c-1.36,0.12-2.13,0.82-2.18,2.22c-2.5,1.73-5.06,1.47-7.63,0.2
		c0.08-2.62-1.92-3.91-3.53-5.46c0.76-1.3,1.53-2.6,2.29-3.9c4.65-3.99,10.6-6.59,13.33-12.6c0.28-0.41,0.66-0.62,1.15-0.64
		c1.49,0.67,2.86,1.47,4.68,0.81c7.28-2.66,14.79-4.63,22.07-7.3c2.56-0.94,1.86-2.66,2.08-4.31c0.81-1.68,1.86-1.1,2.94-0.33
		c2.01,3.78,5.2,3.07,8.44,2.21c8.98-0.16,17.7,1,25.87,4.98c9.57,4.74,18.72,9.98,24.79,19.29c2.28,3.5,4.36,7.12,5.77,10.98
		c1.18,3.25,4.27,3.88,6.1,5.87c1.75,1.9-3.19,3.83-2,7.18c1.82,5.14,3.25,10.44,4.53,15.76
		C406.46,105.56,407.74,106.34,409.14,106.95z"/>
	<path d="M366.36,379.65c-1.16,3,1.88,6.94-2.08,9.32c-2-1.86-1.4-4.33-1.4-6.58c-0.01-3.53-0.87-6.9-1.62-10.29
		c-1.92-6.68-5.8-12.21-10.44-17.22c-2.27-2.45-3.27-4.93-1.45-8.02c2.82-2.5,4.57,0.21,6.28,1.57c7.67,6.13,7.55,6.14,14.1-1.11
		c1.86-2.06,1.51-2.89-0.91-3.72c-12.53-4.31-24.75-9.47-37.31-13.69c-4.43-1.7-8.8-3.52-12.92-5.86c-2.03-1.15-4.14-2.39-2.51-5.33
		c2.24-1.49,4.52-0.52,6.71,0.05c15.09,3.96,29.52,9.86,44.16,15.13c4.32,1.56,9.06,2.25,12.7,5.45c0.93,1.13,1.53,2.32,0.6,3.75
		c-4.33,5.22-8.88,10.3-14.64,13.92c-3.57,2.25-4.05,4.7-2.63,8.29C364.82,369.91,366.69,374.53,366.36,379.65z"/>
	<path class="st8" d="M411.09,103.05c-0.6,0-1.2,0.01-1.8,0.01c-2.75-4-1.26-8.67-1.96-13c-3.29-20.44-13.65-35.93-31.26-46.67
		c-2.98-2.07-6.34-3.31-9.75-4.45c-0.48-0.15-0.95-0.34-1.41-0.55c-16.06-6.35-31.87-4.84-47.47,1.61
		c-3.37,1.39-6.54,3.25-9.84,4.81c-2.78,0.86-4.7,3.24-7.4,4.26l0.04-0.03c-1.57,1.72-3.01,3.6-5.09,4.74
		c-0.74,0.41-1.93,1.15-1.96-0.73c23.69-27.94,69.77-29.94,96.61-4.23C405.27,63.64,412.48,81.65,411.09,103.05z"/>
	<path class="st9" d="M472.23,150.06c6.71-6.21,15.39-9.31,22.78-14.44c4.83-3.36,9.98-6.29,14.14-10.56
		c-0.38-0.47-0.35-0.91,0.11-1.31c2.68-0.29,4.69-2.08,7.01-3.16c1.62-0.75,3.18-1.66,5.06-0.95c2.79,1.73,1.25,5.09,2.66,7.19
		c-0.34-1.23-1.12-2.6,0.42-3.78c0.72,2.81,2.36,5.77-1.22,7.92c-5.28,0.08-9.58,3.09-14.23,4.96
		c-10.76,4.32-21.45,8.84-32.11,13.43C475.47,149.96,473.99,151.33,472.23,150.06z"/>
	<path class="st2" d="M284.02,65.95c1.25,0.38,2.66,0.53,3.73,1.2c2.32,1.46,1.46,2.45-0.71,2.99c-2.72,1.94-5.59,0.05-8.38,0.33
		c-5.83,0.08-11.46-1.67-17.24-1.91c-7.81-0.33-15.52,1.13-23.3,1.4c-1.96,0.07-3.97,0.73-5.68-0.83c-6.92-1.58,0.81-4.09-0.38-6.03
		c1.3,1.48,2.41,2.77,4.91,2.4C252.66,63.22,268.35,63.6,284.02,65.95z"/>
	<path class="st10" d="M524.41,123.06c-0.1,1.44-0.2,2.88-0.33,4.68c-2.2-2.32-1.51-5.4-2.98-7.61c-0.74-0.86-1.3-1.82-1.58-2.93
		c-0.54-1.04,0.37-2.2-0.27-3.24c0.02-4.59-1.48-5.26-5.94-3.49c-22.21,8.85-44.31,18-67.17,25.12c2.44-3.73,6.73-4.23,10.38-5.61
		c16.99-6.46,34.08-12.64,51.11-18.97c2.32-0.86,4.73-1.68,6.79-2.99c4.07-2.6,5.67-0.84,6.96,3.04
		C522.72,115,524.01,118.9,524.41,123.06z"/>
	<path class="st11" d="M380.26,343.1c-0.38-1.14-0.76-2.28-1.14-3.42c0.27-3.04,2.6-4.86,4.28-7.03c4.64-6,9.65-11.73,12.73-18.78
		c0.15-0.43,0.36-0.84,0.59-1.24c3.15-2.48,2.42-6.32,3.33-9.58c0.72-0.04,1.43-0.09,2.15-0.13c1.82-0.33,2.92,0.98,4.22,1.85
		c0.38,2.76-0.39,6.22,4,6.55c1.49,0.79,3.26,1.22,4.03,2.99c-0.24,0.86-0.72,1.27-1.64,0.9c-3.59-0.14-7.15-3.85-10.15-2.06
		c-2.63,1.58-3.7,5.68-5.62,8.57C392.02,329.28,386.72,336.65,380.26,343.1z"/>
	<path class="st12" d="M472.23,150.06c15.25-6.21,30.49-12.47,45.79-18.56c1.52-0.61,3.23-2.72,5.17-0.52
		c-18.66,7.4-37.13,15.25-55.43,23.5c-8.9,4.01-17.96,7.71-27.63,9.59c8.61-5.35,18.37-8.06,27.57-12.05
		C469.22,151.36,470.72,150.71,472.23,150.06z"/>
	<path class="st13" d="M425.32,237.14c-0.41-2.64,0.8-3.62,2.2-4.63c10.62-7.72,21.07-15.63,27.47-27.56
		c0.55-1.03,1.44-1.73,2.35-1.3c1.85,0.87,0.22,1.99-0.21,2.8c-5.91,10.95-15.23,18.64-24.98,25.89
		C430.03,233.91,427.83,235.37,425.32,237.14z"/>
	<path class="st14" d="M293.2,53.05c3.29,0.31,3.89-4.1,7.05-4.01c0.53,3.22-0.59,5.43-3.81,6.51c-3.91,1.32-5.38,6.47-10.13,6.5
		C289.79,59.96,289.76,55.17,293.2,53.05z"/>
	<path class="st15" d="M436.36,138.99c0.73,1.82,1.27,3.76,2.24,5.45c2.27,3.94,2.54,7.07-2.68,8.61c-1.27,0.38-2.12,1.12-1.14,2.51
		c1.94,2.74,2.34,6.48,5.47,8.45c-0.06,0.15-0.17,0.44-0.19,0.44c-4.86-1.46-4.68-6.47-6.81-9.83c-1.42-2.24,0.66-3.26,2.4-3.84
		c2.71-0.9,2.65-2.18,1.81-4.74C436.77,143.88,433.43,141.78,436.36,138.99z"/>
	<path class="st16" d="M458.18,248.92c-0.08,2.65-1.83,1.31-2.77,0.97c-2.12-0.77-4.03-0.8-6.24-0.1c-3.02,0.97-4.51,2-1.22,5.22
		c-6.74-4.27-12.46-0.74-18.31,0.95c4.9-4.57,21.14-8.75,27.56-7.12C457.51,248.93,457.85,248.9,458.18,248.92z"/>
	<path class="st17" d="M78.61,244.31c-0.19,0.31-0.37,0.78-0.7,1.09c-3.01,2.82-6.05,5.62-9.08,8.42c-0.63,0.58-1.24,1.07-2.07,0.26
		c-0.56-0.55-0.72-1.22-0.19-1.72c3.37-3.16,6.74-6.32,10.24-9.33C77.44,242.5,78.36,243.19,78.61,244.31z"/>
	<path class="st18" d="M61.03,263.79c-1.31,0.17-1.74-0.35-1.98-0.97c-0.33-0.89,3.55-6.64,4.51-6.58c0.51,0.03,1.43,0.91,1.4,0.97
		C63.65,259.54,62.24,261.81,61.03,263.79z"/>
	<path class="st19" d="M458.16,194.84c0.54-1.26-1.19-4.63,0.98-4.52c2.41,0.12,0.87,3.48,1.21,5.4c0.11,0.63-0.05,1.31-0.11,1.97
		c-0.1,1.2-0.29,2.55-1.88,2.25c-2.13-0.4-0.35-1.76-0.43-2.67C457.87,196.62,458.04,195.95,458.16,194.84z"/>
	<path class="st20" d="M423.31,241.29c0-7.17-0.01-14.34-0.01-21.51C424.46,226.95,424.49,234.12,423.31,241.29z"/>
	<path class="st21" d="M452.23,180.18c4.63-0.39,4.96,2.99,6.12,5.43c0.09,0.19-0.45,0.87-0.83,1.04c-0.76,0.34-1.16-0.27-1.54-0.84
		C454.84,184.07,453.67,182.34,452.23,180.18z"/>
	<path class="st22" d="M412.81,315.2c0.45-0.39,0.9-0.77,1.36-1.16c3.26-0.32,5.91,0.45,7.06,3.92c-0.33,0.3-0.66,0.61-0.99,0.91
		C417.75,317.66,415.28,316.43,412.81,315.2z"/>
	<path class="st23" d="M316.25,318.99c-0.64,2.41,1.2,3.15,2.77,3.91c4.37,2.1,8.8,4.1,13.21,6.13c0.76,4.5-1.91,4.63-5.15,4.04
		c-5.81-0.34-11.63-1.22-17.43-0.29c-3.45,0.55-4.93-2.07-7.12-3.73c-1.1,1.97,1.47,2.42,1.41,3.89c-0.15,0.22-0.3,0.66-0.5,0.69
		c-1.5,0.19-3.05,1.42-4.3-0.81c-3.16-5.66-5.63-11.58-3.58-18.04c1.02-3.22-0.48-4.38-2.55-5.48c-4.72-2.51-9.02-5.67-13.19-8.94
		c-2.23-1.75-3.22-1.58-5.02,0.6c-6.45,7.83-12.99,15.61-21.09,21.87c-5.68,4.39-12.44,7.26-17.87,11.72
		c-4.25,3.5-6.14,1.6-8.91-0.84c-8.82-7.78-15.13-17.12-17.84-28.69c1.67-2.3,4.4-2.89,6.71-4.15
		c22.48-12.26,35.9-30.92,36.87-56.63c0.81-21.24-8.66-38.62-25.09-52.09c-2.19-1.79-4.54-3.38-6.89-4.97
		c-1.14-0.77-2.91-1.22-2.5-3.24c3.12-0.92,6.25-1.81,9.35-2.78c0.9-0.28,2.8,0.37,2.25-1.58c-0.42-1.49-1.89-0.87-2.96-0.62
		c-4.47,1.05-8.93,2.14-13.39,3.22c-3.1,0.32-5.64-1.45-8.41-2.32c-4.23-1.33-8.43-2.72-12.95-2.62c-4.06-0.8-8.01-2.02-12.08-2.8
		c-5.35-1.36-10.8-0.98-16.22-1.02c-7.43-0.06-8.09-0.79-7.7-8.4c0.19-0.82,0.56-1.55,1.23-2.08c0.88-0.43,2.34,0.12,2.74-0.8
		c2.28-5.26,7.83-8.11,9.97-13.33c1.44-3.5,3.33-6.35,6.4-8.56c3.83-2.76,6.18-6.05,5.21-11.35c-0.77-4.22,5.88-10.12,10.04-9.63
		c1.78,0.21,2.43,1.52,3.1,2.86c5.59,1.68,11.42,1.78,17.13,2.64c12.98,1.95,25.52,5.07,36.16,13.3
		c7.64,5.91,13.23,13.54,17.93,21.89c0.77,1.38,0.71,2.87,1.09,4.29c4.31,7.41-3.01,5.79-6.33,7.45c1.79,2.45,3.81,1.41,5.48,0.92
		c2.1-0.62,3.81-0.8,5.02,1.39c3.98,4.79,4.74,10.85,6.41,16.51c4.12,14,7,28.39,13.39,41.65c1.7,3.03,3.21,6.17,5.11,9.11
		c2.57,3.97,2.24,5.03-2.25,6.31c-5.71,1.63-10.78,4.09-14.79,8.66c-2.12,2.42-3.97,4.87-4.67,8.05
		c-1.65,5.34-4.38,10.53-2.17,16.37c0.24,0.39,0.43,0.8,0.61,1.22c0.6,2.49,2.37,4.14,4.17,5.78c7.25,6.69,15.97,11.35,23.8,17.24
		c1.99,1.5,3.79,3.22,6.55,5.22c-0.2-0.17-0.03-1.23-0.45-0.71c-0.1,0.13-0.24,0.06-0.48-0.08c-0.9-0.52-1.63-1.14-1.7-2.27
		c0.31-4.77-3.54-6.84-6.42-9.31c-3.28-2.82-6.49-5.62-8.64-9.42c-1.33-2.35-2.43-4.75-0.73-7.42c1-0.53,2.02-0.3,2.83,0.26
		c11.86,8.11,23.32,16.73,33.86,26.53c0.04,2.41-1.85,3.77-3,5.54C320.67,315.29,319.56,318.38,316.25,318.99z"/>
	<path class="st24" d="M192.4,88.01c-12.28,10.05-26.47,17.72-36.93,30.05c-6.75,7.96-13.16,16.09-16.67,26.22
		c3.25-4.01,6.48-8.05,9.77-12.04c6.27-7.59,13.09-14.67,20.91-20.66c19.19-14.7,40.33-24.94,64.67-27.62
		c1.15-0.15,2.64-1.41,3,0.94c-15.79,3.53-30.84,9.01-44.8,17.27c-0.86,1.52-2.63,1.89-3.82,3c1.42-1.17,3.11-1.66,4.87-1.98
		c14.13-6.06,28.66-11.28,43.93-12.87c13.43-1.4,26.97-4.64,40.63-1.31c2.57,0.63,5.25-0.94,8.55,0.38
		c-3.6,2.86-7.96,0.98-11.22,2.86c-0.46,0.26-0.95,0.34-1.46,0.25c-5.91-2.4-11.89-0.9-17.72,0.11c-10.52,1.83-20.8,4.71-30.33,9.64
		c-9.62,4.98-20.17,7.82-29.6,13.23c-5.92,3.39-11.93,6.61-16.71,11.64c-1.68,1.77-3.31,3.39-1.69,6.04
		c0.35,0.57,0.41,1.26,0.39,1.94c-0.13,4.34-4.87,5.29-6.34,8.56c-1.7,3.79-3.91,6.11-8.43,4.81c-0.93-0.27-1.99,0.13-2.97-0.14
		c-0.72-0.72-1.05-1.46-0.64-1.82c-0.42,2.35,0.03,5.48-1.53,8.13c-0.23,0.42-0.52,0.79-0.84,1.14c-6.07,1.6-9.7,6.31-13.77,10.57
		c-2.94,3.07-4.52,6.34-3.65,10.6c-1.14,2.98-4.25,3.28-6.48,4.79c-3.26,2.2-7.53,3.23-8.9,7.63c-0.18,1.09-0.8,2.08-1.83,2.1
		c-2.63,0.05-2.76,1.78-2.81,3.68c-0.27,0.67-0.73,1.15-1.41,1.42c-4.25,0.28-5.92,2.78-5.84,6.78c-1.98,3.24-4.73,6.12-4.73,10.27
		c-0.17,1.16-0.63,2.12-1.85,2.44c-0.83,0.22-1.07-0.24-0.95-1c0.02-0.49,0.24-1.16,0.01-1.43c-1.04-1.24-1.32,0.24-1.48,0.66
		c-1.55,4.22-3,8.48-4.48,12.73c-1.84-1.94-1.53-4.41-1.24-6.64c2-15.15,3.39-30.47,9.32-44.79c4.73-11.42,10.64-22.21,17.81-32.3
		c0.59-0.84,1.41-1.4,2.22-1.99c5.01-0.66,7.67-4.9,10.25-8.13c5.08-6.34,10.23-12.6,15.77-18.54c1.18-1.27,1.56-2.89,2.02-4.47
		c4.19-5.29,10.1-8.51,15.38-12.45c5.3-3.96,11.06-7.3,16.92-10.42c1.65-0.88,3.28-1.64,5.18-0.77c0.44,0.3,0.64,0.72,0.63,1.25
		C193.26,88.26,192.88,88.35,192.4,88.01z"/>
	<path d="M343.19,383.97c-3,0.34-3.72,2.69-3.88,5.01c-0.3,4.18-1.56,8.13-2.69,12.08c-2.55,8.9-8.79,13.56-18.29,14.24
		c-1.61,0.12-3.15,0.97-4.74,1.41c-9.3,2.51-9.36,2.31-13.91-3.94c-3.71-5.1-6.55-10.64-6.54-17.37c0.01-4.86,0.1-9.92-3.37-14.11
		c-0.62-0.75-0.38-2.21-0.54-3.35c-0.92-2.57-0.58-5.12,0.14-7.65c0.44-1.56,1.26-3.07,0.35-4.73c-0.28-2.85,1.5-4.9,2.76-7.16
		c1.84-2.66,3.44-5.51,5.87-7.72c1.41-1.28,2.73-2.92,5.04-2c1.48,1.36,2.09,3.1,1.42,4.94c-0.92,2.55-0.29,4.04,2.27,4.98
		c2.78,1.03,5.45,1.71,7.78-0.8c1.86-2,2.42-4.22,1-6.79c-1.45-2.62-4.52-4.71-2.92-8.4c1.1-1.34,2.5-1.73,4.15-1.3
		c3.31,1.84,6.4,4.06,9.89,5.57c0.61,0.26,1.35,0.47,1.67,1.01c5.37,9.03,13.93,16.28,15.28,27.55
		C344.26,378.35,345.38,381.29,343.19,383.97z"/>
	<path class="st25" d="M128.22,239.83c0.11-17.3,14.39-31.44,31.5-31.18c17.29,0.26,31.13,14.47,30.95,31.79
		c-0.18,17.19-14.63,31.51-31.58,31.29C141.9,271.5,128.11,257.26,128.22,239.83z"/>
	<path class="st26" d="M218.2,183.94c12.51,7.71,22.79,17.6,29.4,30.87c11.32,22.73,7.23,51.06-9.59,70.02
		c-8.07,9.1-17.39,16.17-28.92,20.19c-6.91-1.55-13.75-0.72-21.09,0.82c2.28-2.1,4.82-2.46,7.02-3.44
		c31.62-13.96,47.94-53.22,35.52-85.55c-0.27-0.71-0.22-1.7-1.29-1.89c-0.18-0.14-0.36-0.28-0.54-0.42
		c-1.77-2.85-2.49-6.32-5.12-8.67c-1.46-1.7-2.33-3.8-3.79-5.5c-0.24-0.39-0.44-0.8-0.62-1.21c-1.45-4.21-6.56-5.69-7.63-10.18
		c-1.79-1.78-2.68-3.29,0.92-3.84C214.41,184.86,216.3,184.35,218.2,183.94z"/>
	<path class="st27" d="M254.26,376.99c0.01,6.08-8.45,12.64-14.53,11.7c-8.64-1.34-15.33-6.15-19.86-13.02
		c-7.37-11.18-13.93-22.82-17.13-36.19c-1.99-8.29,1.91-15.14,3.21-22.62c0.31-1.76,1.68-2.06,2.61-0.15
		c5.9,12.12,14.49,22.15,24.18,31.34c0.67,0.64,1.43,1.71,1.37,2.52c-0.74,9.17,6.08,13.37,11.85,18.23
		c1.89,1.59,3.98,2.97,6.04,4.34C253.49,374.13,254.62,375.22,254.26,376.99z"/>
	<path class="st28" d="M178.26,337.14c3.25-2.86,7.26-3.76,11.38-4.09c4.56-0.37,6.99,1.32,9.03,6.15
		c6.63,15.71,10.29,32.54,18.17,47.74c1.22,2.36,0.35,3.28-1.65,4.01c-5.48,2-11.05,3.52-16.96,2.92c-4.83-0.49-6.18-5.03-8.92-7.94
		c0.71-2.42-1.2-4.01-1.89-5.98c-4.3-12.42-8.33-24.91-9.87-38.05C177.35,340.22,177.09,338.59,178.26,337.14z"/>
	<path class="st29" d="M115.29,374.99c1.98,3.55,6.92,0.94,9.09,4.71c-7.16,0.61-12.61,4.12-16.08,10.34
		c-3.38,6.06-3.29,12.46-2.29,19.28c1.43,9.73,5.09,18.58,9.64,27c4.68,8.64,11.94,14.07,23.33,12.47
		c-2.99,3.19-6.29,3.68-9.22,3.95c-9.57,0.87-18.23-0.87-24.61-9.23c-3.59-4.7-8.26-8.37-11.21-13.84
		c-5.36-9.97-5.31-20.2-3.92-30.87c0.24-1.87,2.12-4.04-0.05-5.98c-1.09-2.57,0.45-4.54,1.52-6.63c4.28-5.54,8.94-10.56,16.3-11.89
		C110.36,373.84,112.95,372.95,115.29,374.99z"/>
	<path class="st30" d="M259.11,337.08c6.03,1.1,11.86,2.93,17.67,4.86c3.4,1.13,3.98,2.31,1.08,4.84
		c-7.13,6.24-12.85,13.54-14.93,23c-1.24,5.63-1.85,11.41-2.75,17.12c-4.38,8.41-11.55,13.95-19.39,18.78
		c-2,1.23-4.01,1.84-5.53-0.75c-1.34-1.46-2.42-3.41-4.07-4.3c-8.8-4.75-9.71-14.2-13.43-21.98c2.46,2.57,4.82,5.26,7.4,7.7
		c7.69,7.27,22.58,8.98,30.13-0.8c3.21-4.16,2.31-15.67-1.73-19.07c-4.21-3.53-8.05-7.41-10.28-12.58c0.35-2.35-1.33-4.33-1.11-6.73
		c0.6-6.36,4.62-10.05,11.11-10.24C255.25,336.88,257.16,337.85,259.11,337.08z"/>
	<path class="st31" d="M120.4,290.71c11.56,9.74,24.6,16.14,39.8,17.7c7.15,0.73,14.23,0.14,21.86-0.84
		c-12.41,1.69-12.48,10.34-11.9,19.44c0.17,2.64,0.03,5.3,0.03,7.96c-18.6-3.39-32.2-14.57-44.82-27.35
		c-0.68-0.69-1.18-1.64-2.32-1.71C117.58,303.75,116.11,295.32,120.4,290.71z"/>
	<path class="st32" d="M343.19,383.97c0.05-12.4-3.99-22.96-13.86-30.91c-0.72-0.58-1.94-0.8-1.04-2.16
		c1.41-2.15-0.34-2.36-1.75-2.91c-3.49-1.37-6.91-2.88-9.35-5.91c2.01-1.94,4.75-1.69,7.18-2.38c2.22,0.15,4.84-0.8,6.05,2.16
		c-0.39,0.34-0.77,0.68-1.16,1.02c5.8,2.74,11.78,5.26,15.67,10.71c2.71,3.8,6.39,7.17,6.22,12.43c-1.8,3.89,0.92,7.27,1.38,10.9
		c1.93,15.4-3.14,28.15-14.37,38.32c-5.91,5.35-12.66,9.66-21.48,8.85c-3.18-0.29-5.65-1.11-8.16-3.78
		c10.1-1.8,20.42-1.95,26.95-11.13C340.84,401.59,343.54,393.26,343.19,383.97z"/>
	<path class="st33" d="M220.22,200.05c2.31,0.83,2.88,2.89,3.47,4.94c2.89,2.79,3.86,6.65,5.59,10.09c0,0-0.02-0.11-0.02-0.11
		c0.73,4.39,1.58,8.77,2.16,13.18c4.1,30.97-15.33,61.46-45.1,70.89c-0.99,0.61-1.8,0.56-2.29-0.64c1.21-2.52,3.9-2.9,6.01-4.07
		c6.59-3.65,12.51-8.09,17.18-14.07c0.24-0.39,0.52-0.76,0.82-1.11c4.48-4.65,7.53-10.12,9.28-16.32c0.69-1.95,1.39-3.9,2.45-5.7
		c0.31-0.35,0.67-0.63,1.05-0.89c5.5-16.31,3.57-31.69-5.71-46.14c-0.44-0.15-0.86-0.33-1.29-0.52c-3.19-3.95-6.25-7.98-10.05-11.42
		c-1.25-1.13-2.58-2.62-2.38-4.68c-0.05-1.92-2.31-2.28-2.84-4.16c1.23-0.36,2.47-0.72,3.71-1.08
		C209.18,190.76,215.09,194.81,220.22,200.05z"/>
	<path class="st34" d="M191.25,395.96c9.27,4.25,18.75,2.91,28.14,0.72c2.31-0.54,3.49,0.17,4.66,1.63
		c5.3,6.58,10.53,13.22,15.84,19.79c1.83,2.27,0.75,2.68-1.49,2.87c-12.59,1.05-24.45-1.57-34.29-9.37
		C198.94,407.51,195.49,401.24,191.25,395.96L191.25,395.96z"/>
	<path class="st35" d="M120.4,290.71c-1.91,5.55-1.9,10.77,2.65,15.19c3.86,12.53,11.31,23.04,19.01,33.37
		c2.95,3.96,6.23,7.67,9.36,11.49c0.28,1.06-0.18,1.38-1.17,1.2c-24.38-22.19-40.65-49.27-48.9-81.17
		c-2.93-11.31-4.46-22.83-5.03-34.48c-0.09-1.81-0.83-4.13,2.75-5.19C96.71,254.51,104.11,274.27,120.4,290.71z"/>
	<path class="st36" d="M179.23,298.86c-34.91,9.59-72.12-9.74-78.7-49.07c-0.96-5.72-0.53-11.62-0.21-17.45
		c0.09-1.68,0.65-2.81,2.14-3.6c3.06-1.63,6.07-3.33,10.27-5.65c-3.43,12.4-3.27,23.76,0.42,34.97c0.24,5.66,1.64,11.14,2.58,16.69
		c0.51,2.98,2.53,5.02,4.67,6.87c14.63,12.63,31.48,17.99,50.73,15.31c4.27-0.6,8.55-1.19,12.61-2.77c1.68-0.6,3.34-1.46,5.19-0.62
		c0.42,3.87-3.79,2.49-5.06,4.44C182.79,300.74,180.68,298.07,179.23,298.86z"/>
	<path class="st37" d="M142.38,392.81c-3.05-3.6-6.1-7.21-9.15-10.81c1.8-5.54,5.88-8.76,11.05-10.88c3.34,0.35,4.39,3.85,7.87,5.69
		c-3.01-7.19-8.13-11.32-13.83-15.36c21.46,1.34,35.75,43.64,29.23,58.43c-0.86-6.06,0.88-12.36-1.45-18.3
		c-1.48,4.87,0.42,9.73-0.41,14.66c-0.81,4.86-0.8,9.84-3.22,14.97c-3.03-4.43,0.9-8.3-0.13-12.11c-0.1-6.96,1.14-13.98-1.12-20.81
		c-0.61-5.67-4.23-0.98-6.25-1.8c-2.23-1.08-3.01-3-3.09-5.33c0.16-0.46,0.42-0.88,0.74-1.25c0.91-1.08,2.6-1.64,2.42-3.44
		c-0.07-0.73-0.86-1.36-1.35-1.01c-1.49,1.06-3.91,0.15-4.79,2.67C147.88,391.03,145.88,393.09,142.38,392.81z"/>
	<path class="st38" d="M220.25,257.13c0.19,2.1-0.8,3.77-1.96,5.39c-0.31,0.75-0.63,1.5-1.28,2.04c-2.54,0.8-5.05,2.21-7.73,0.41
		c7.94-17.77,8.19-35.27-1.91-52.36c-4.49-7.61-8.96-11.88-20.1-19.48c4.97-2.7,9.56-4.25,14.11,0.35c2.27,4.51,7,6.77,9.85,10.81
		c1.07,1.52,1.83,3.04,2.46,4.71c4.99,3.86,5.65,9.91,7.63,15.27c0.51,1.37,0.57,2.93,1.01,4.36c0.76,5.67,2.02,11.32,0.91,17.09
		C222.28,249.54,222.74,253.72,220.25,257.13z"/>
	<path class="st32" d="M364.15,389.81c-2.98,21.69-18.9,39.67-39.66,36.4c5.46-2.89,10.31-5.83,14.63-9.61
		c11.77-10.31,16.22-23.41,15.13-38.71c0.63-2.68,2.42-4.7,3.99-6.82c1.48-2.01,2.7-1.48,3.53,0.65
		C363.57,377.63,363.18,383.81,364.15,389.81z"/>
	<path class="st39" d="M184.36,295.1c-16.13,5.88-32.07,5.19-47.81-1.46c-5.53-2.34-10.28-5.99-15.33-9.18
		c-7.77-4.91-9.75-19.4-8.08-26.39c8.66,23.71,34.73,41.99,67.17,32.07C182.42,291.16,182.86,293.57,184.36,295.1z"/>
	<path class="st40" d="M235.27,404.93c4.56,2.36,6.95-1.75,9.95-3.57c6.04-3.66,10.01-9.59,14.96-14.46
		c0.91,7.72,2.19,15.36,5.76,22.39c1.13,2.23,1.13,2.96-1.71,4.01c-4.66,1.72-9.89,3.27-11.96,8.78c0,0,0.07-0.06,0.07-0.06
		c-3.52,0.42-5.83-0.75-7.34-4.27c-1.42-3.34-4.21-5.88-6.85-8.4C236.88,408.12,235.22,407.07,235.27,404.93z"/>
	<path class="st41" d="M192.4,88.01c0.27,0.02,0.55,0.04,0.82,0.06c0.95-2.58,3.64-3.95,4.53-6.57c0.71-2.23,3.2-2.22,4.57-3.61
		c0.7-0.94,1.36-1.48,1.79,0.18c0.49,0.52,1.09,0.79,1.77,0.51c14.2-5.75,29.43-6.21,44.29-8.57c7.67-1.22,15.35-2.24,23.15-0.55
		c1.8,0.39,3.93,0.68,5.79-0.43c2.79-0.7,5.15,1.69,7.92,1.12c2.57,1.45,5.35,1.29,8.14,1.07c10.44,3.25,21.02,6.13,30.88,11.02
		c0.01,1.69-0.84,1.45-1.86,0.82c-25.72-7.96-51.94-11.08-78.78-8.13c-17.44,1.92-34.32,6-50.28,13.51
		C194.56,88.71,192.69,91.62,192.4,88.01z"/>
	<path class="st28" d="M174.32,336.06c-0.64,0.89-1.43,2.24-1.98,0.09c-0.34-1.32-0.02-2.81,0.01-4.22
		c2.32-1.43,1.51-3.79,1.59-5.79c0.15-3.76-0.09-7.54,1.34-11.13c8.39-5.29,17.4-6.2,26.96-4.13c1.9,0.41,2.83,0.81,1.95,2.65
		c-2.24,4.73-3,10.07-6.02,14.46c-2.58,1.15-5.14-0.23-7.75-0.08C183.8,328.3,178.18,330.37,174.32,336.06z"/>
	<path class="st42" d="M105.22,215.05c2.13,0.83,1.72-0.97,2.07-1.99c6.18-12.98,16.08-22.13,29.18-27.77
		c3.54-1.52,6.99-4.04,11.27-2.9c1.93,1.86-0.07,2.9-0.92,4.11c-1.23,1.76-3.31,2.74-4.37,4.68c-12.16,5.79-21.39,14.46-27.51,26.64
		c-2.42,4.81-8.7,4.91-13.26,9.02C102.13,221.89,103.11,218.31,105.22,215.05z"/>
	<path class="st43" d="M144.27,371.13c-3.81,3.49-8.01,6.59-11.05,10.88c-5.61-3.28-11.21-6.58-17.94-7.01
		c-8.93-0.37-16.25,2.55-21.2,10.36c-0.42,0.66-1.21,1.08-1.83,1.61c-0.98-4.52,2.24-7.27,4.49-10.36
		c3.03-4.15,7.72-6.45,11.46-9.82c9.61-4.52,17.93-0.02,26.94,4.9c-1.69-4.23-4.47-5.19-7.04-6.66
		C133.9,366.01,139.64,367,144.27,371.13z"/>
	<path class="st44" d="M327.08,333.07c2.68-0.12,4.76-1,5.15-4.04c13.85,5.02,27.7,10.03,42.01,15.22
		c-3.14,4.61-7.48,7.41-11.01,10.99c-1.41,1.43-2.25,0.18-3.23-0.78c-2.61-2.56-5.28-5.04-7.96-7.53c-0.55-0.51-1.23-1.3-1.89-0.05
		c-1.47,1.2-2.22,0.28-2.85-0.98c-0.06-2.65-1.76-3.94-3.86-5.19C338.21,337.64,332.74,335.16,327.08,333.07z"/>
	<path class="st45" d="M142.45,191.18c-1.31-2.64,1.67-2.84,2.5-4.25c0.87-1.48,2.21-2.68,3.34-4c-0.26-0.97,0.34-1.6,1.11-1.64
		c2.01-0.12,0.72-1.13,0.59-1.85c0.17-0.79,0.6-1.4,1.15-1.95c6.21-3.23,12.54-2.3,18.89-0.56c5.8,2.78,12.35,3.61,18.03,6.68
		c2.03,1.1,5.56,1.39,4.03,5.32c-5.89,2.37-11.57,1.79-17.65-0.02C163.65,185.68,152.92,187.61,142.45,191.18z"/>
	<path class="st5" d="M173.29,403.92c-1.74-4.86-0.94-10.21-2.96-15.02c4.15-2.07,8.82-3.26,12-6.99c2.63,4.9,4.21,10.47,8.93,14.05
		c0,0,0.01-0.01,0.01-0.01c-1.77,3.14-1.55,5.93,1.76,7.82c2.55,1.46,4.03,3.72,5.34,6.18c0.12,1.65-1.18,2.03-2.25,1.9
		C187.94,410.87,179.91,409.39,173.29,403.92z"/>
	<path class="st46" d="M173.29,403.92c6.9,2.5,13.6,5.62,21,6.59c1.48,0.19,2.87,0.85,4.07-0.55c2.8,3.67,5.6,7.34,8.4,11.01
		c0.49,0.64,1.34,1.18,0.97,2.11c-0.48,1.2-1.7,0.97-2.59,0.84c-10.38-1.47-20.41-4.23-29.54-9.46
		C171.4,412.05,173.83,407.51,173.29,403.92z"/>
	<path class="st47" d="M170.25,178.15c-5.11-2.01-10.44-0.96-15.68-1.14c-1.63-0.06-2.21,1.23-3.15,2.08
		c-5.89,1.61-11.85,2.95-17.3,5.89c-1.79,0.97-3.65,2.46-5.95,1.15c-0.33-2.23,1.53-2.72,2.89-3.47c7.05-3.91,13.86-8.39,22.05-9.73
		c9.04-0.37,18.08-1.06,27.07,0.62c6.42,1.93,13.11,3.08,19,6.53c1.82,1.07,3.94,1.8,4.76,4.05c-2.73,2.63-6.13,3.03-9.69,2.91
		C186.62,183.07,178.47,180.5,170.25,178.15z"/>
	<path class="st48" d="M184.36,295.1c-3.9,0.43-2.63-3.37-4.05-4.96c12.59-5.01,22.06-13.61,28.97-25.16
		c2.63,0.04,5.06-1.49,7.74-0.97c-0.99,6.41-5,11.13-8.84,15.96l0.04-0.04c-5.07,6.25-10.75,11.69-18.74,14.04
		C187.61,293.59,186.09,294.8,184.36,295.1z"/>
	<path class="st49" d="M127.39,141.29c-2.05,5.53-6.02,9.9-8.96,14.9c-9.3,15.84-15.67,32.57-17.23,51.03
		c-0.56,6.6-2.38,13.08-1.92,19.78c-0.41,0.96-1.18,1.98-2.12,1.65c-1.42-0.49-0.75-2.02-0.72-3.07c0.51-16.9,3.56-33.35,9.19-49.29
		c4.1-11.61,9.54-22.57,15.93-33.11C123.18,140.49,124.81,139.99,127.39,141.29z"/>
	<path class="st50" d="M273.21,379.91c-3.09,16.97,1.56,31.17,14.77,42.58c3.7,3.2,7.67,5.98,11.55,8.94
		c-10.48-1.46-18.16-7.36-24.19-15.5c-2.43-3.28-5.87-6.22-5.88-10.89c-3-6.86-4.01-13.96-2.56-21.34
		C267.6,380.13,269.33,378.22,273.21,379.91z"/>
	<path class="st51" d="M347.29,345.91c0.97,0.28,1.59,1.56,2.85,0.98c-1.1,3.11-0.27,5.38,2.14,7.81c4.55,4.58,8.08,9.97,9.87,16.32
		c-0.36,0.47-0.7,0.45-1.02-0.05c-2.85-1.31-1.76,1.94-3,2.63c-1.72,0.95-1.87,3.49-3.88,4.3c-1.04-3.96-2.07-7.93-3.11-11.89
		c-4.18-9.35-10.01-17.12-19.93-21.09c-0.77-0.31-2.54-0.22-1.96-2.05c4.95,0.61,9.72,2.01,13.83,4.77
		C345.93,349.56,346.4,347.69,347.29,345.91z"/>
	<path class="st52" d="M279.12,69.03c-1.5,1.6-3.5,1.04-5.18,0.83c-10.52-1.28-20.72,1.28-31,2.56
		c-13.55,1.69-27.23,2.98-40.51,8.97c0.82-1.62,1.26-2.47,1.69-3.33c5.6-4.46,12.76-4.72,19.12-7.11c3.12-0.32,6.24-0.62,9.19-1.82
		C247.99,67.23,263.55,66.56,279.12,69.03z"/>
	<path class="st53" d="M202.33,77.89c-1.3,1.29-2.61,2.58-3.91,3.87c-1.45,2.18-2.92,4.35-5.63,5.14
		c-8.33,2.33-14.89,7.83-22.01,12.32c-5.31,3.35-9.77,7.93-15.34,10.94c-2.38-2.48-1.93-4.15,0.88-6.31
		C170.42,92.98,185.2,83.38,202.33,77.89z"/>
	<path class="st54" d="M288.35,393.92c1.2,5.31,2.8,10.43,5.41,15.28c2.63,4.88,6.16,8.98,10.26,13.15
		c-12.57-2.52-24.87-18.2-26.68-33.49c2.43-0.61,3.8,1.28,5.51,2.35C284.59,392.3,286.01,394.04,288.35,393.92z"/>
	<path class="st55" d="M273.21,379.91c-4.12-0.44-4.78,1.88-5.32,5.45c-1.02,6.77,0.13,13.2,1.57,19.68
		c-4.66-6.91-4.77-14.85-4.62-22.67c0.07-3.49-0.01-7.34,2.36-10.45c1.56,1.4,1.01,2.88,0.53,4.18c1.29-10.32,5.15-19.65,13.8-26.43
		c2.23,0.44,3.45,2.17,4.8,3.75c0.46,1.58-0.21,2.13-1.74,1.93c-4.09,2.95-5.25,7.99-8.32,11.66c-3.09,2.72-3.49,6.23-2.89,10.02
		C273.32,377.99,273.26,378.95,273.21,379.91z"/>
	<path class="st56" d="M178.26,337.14c1.58,15.21,5.81,29.74,10.99,44.05c0.49,1.37,3.16,3.16,0.06,4.74
		c-7.89-12.31-11.86-26.05-15.07-40.14C173.24,341.43,174.27,338.8,178.26,337.14z"/>
	<path class="st57" d="M157.27,411.97c2.23,12.29,0.74,30.64-12.42,37.6c9.91-9.3,8.16-20.44,5.5-31.73
		C152.74,415.97,153.89,412.65,157.27,411.97z"/>
	<path class="st58" d="M284.59,355.34c0.55-0.3,1.1-0.6,1.65-0.91c4.23-2.08,6.85-0.38,7.07,4.58c-1.14,2.34-2.27,4.69-3.41,7.03
		c-1.02,5.69-4.16,6.55-10.61,2.91C279.27,363.73,283.51,360.15,284.59,355.34z"/>
	<path class="st59" d="M330.42,341.85c-1.88-1.16-4.06-0.58-6.06-1.07c-2.95-0.13-5.9-0.1-8.86-0.39
		c-9.62-0.93-18.44,1.46-26.58,6.62c-1.53,0.97-3.07,2-4.93,2.32c-0.95,0.01-1.48-0.51-1.75-1.36
		c13.83-13.17,40.11-15.81,55.47-5.55C335.25,342.23,332.84,342.04,330.42,341.85z"/>
	<path d="M295.09,423.01c10.32,6.21,22.8,2.1,32.97,7.68C321.16,436.02,304.2,432.47,295.09,423.01z"/>
	<path class="st60" d="M157.27,411.97c-2.31,1.95-3.21,5.57-6.92,5.87c-0.08-5.62-2.06-10.77-4.02-15.92
		c2.62-1.42,4.51-3.85,7.15-5.25c2.16,0.32,1.07,2.28,1.7,3.38C155.55,404.08,157.71,407.8,157.27,411.97z"/>
	<path class="st61" d="M279.28,368.96c0.99,0.06,2.12-0.18,2.94,0.23c3.83,1.88,6.19,0.53,7.68-3.14c1.41-0.5,2.55-1.12,1.7,1.47
		c-1.11,3.37-2.94,6.64-2.37,10.42c-1.65-0.83-0.43-2.77-1.73-4.17c-0.14,2.31-0.27,4.31-0.39,6.31c-3.35,0.51-6.12-1.3-9.11-2.26
		c-0.4-0.25-0.7-0.59-0.89-1.01C277.35,374.06,277.68,371.33,279.28,368.96z"/>
	<path class="st62" d="M288.35,393.92c-0.45,2.54-1.89,1.18-2.83,0.58c-2.78-1.79-5.46-3.74-8.17-5.63c-0.58-4.01-2.31-8-0.25-12.06
		c0,0,0.25,0.3,0.25,0.3c1.23,3.15,3.02,5.71,6.45,6.85c1.4,0.47,2.6,1.38,3.26,2.82C287.85,389.09,288.37,391.46,288.35,393.92z"/>
	<path class="st63" d="M142.38,392.81c2.65-2.24,7.89-2.83,4.83-8.46c1.8,0.21,2.71,2.43,4.34,0.75c1.61-1.67,3.1-3.19,4.87,0.02
		c1.63,2.96-0.57,3.75-2.34,4.9c-0.55,0.36-1.11,0.71-1.67,1.07c-0.64-0.01-0.77-0.84-1.4-0.85c0.41,0.54,0.64,1.15,0.59,1.85
		c-1.75,2.55-3.95,4.47-7.11,5.02C143.78,395.66,143.08,394.23,142.38,392.81z"/>
	<path class="st64" d="M259.11,337.08c-1.36,1.42-3.12,0.78-4.71,0.82c-8,0.19-12.07,5.08-10.64,12.96c0.2,1.13,0.89,2.22-0.47,3.06
		c-2.53-4.29-4.79-8.87-1.06-13.35C246.76,335.14,252.86,335.22,259.11,337.08z"/>
	<path class="st65" d="M108.2,366.78c3.81,1.15,0.08,1.7-0.28,1.92c-7.22,4.39-13.04,9.94-15.67,18.26
		c-1.23,1.77-1.85,3.78-2.27,5.86c-1.69,1.52-1.95,0.37-1.62-1C91.11,380.43,96.95,371.45,108.2,366.78z"/>
	<path class="st66" d="M192.14,176.1c7.75-0.24,14.63,2.61,21.33,6.08c-2.64,1.06-5.26,2.2-8.21,1.84
		C201.06,181.08,195.71,180.06,192.14,176.1z"/>
	<path class="st57" d="M162.19,397.05c2.38,7.33,2.59,14.68,0.15,22.05c-1.35-4.39-2.7-8.79-4.05-13.18
		c1.4-1.82,1.08-4.13,1.75-6.15C160.42,398.62,160.17,396.91,162.19,397.05z"/>
	<path class="st67" d="M287.06,386.78c-1.94-0.95-3.81-2.12-5.85-2.78c-3.54-1.15-4.6-3.46-3.86-6.89c3.54,0.05,6.62,1.6,9.75,2.97
		C287.09,382.31,287.07,384.54,287.06,386.78z"/>
	<path class="st68" d="M282.23,347.97c0.3,0.31,0.59,0.63,0.89,0.94c-0.18,0.48-0.51,0.79-1.01,0.93
		c-8.78,7.04-12.05,16.89-13.68,28.68c-1.8-2.84-0.78-4.84-1.24-6.59C268.95,361.89,274.58,354.29,282.23,347.97z"/>
	<path class="st69" d="M174.32,336.06c1.57-4.97,6.92-8.67,13.01-9.1c3.68-0.26,7.26,0.31,10.84,1.03
		c-0.02,0.96-0.29,1.46-1.46,1.29C188.2,328.04,180.87,330.8,174.32,336.06z"/>
	<path class="st70" d="M144.48,397.09c2.25-1.68,4.49-3.36,6.74-5.04c1.66,1.2,2.77,2.65,2.24,4.86c-1.86,2.39-3.17,5.58-7.12,5
		C145.72,400.31,145.1,398.7,144.48,397.09z"/>
	<path class="st71" d="M175.27,315c-0.01,5.21,0.07,10.43-0.09,15.64c-0.05,1.74-1.29,2.18-2.84,1.29
		c-0.09-4.32-0.18-8.63-0.28-12.95C172.01,316.73,172.55,315,175.27,315z"/>
	<path class="st72" d="M220.22,200.05c-4.65-1.48-7.52-5.66-11.84-7.75c-2.14-1.04-4.67-1.82-6.12-4.04
		c2.83-1.46,5.53-1.72,7.97,0.78c3.68,3.19,7.6,6.16,10,10.56C220.07,199.74,220.07,199.89,220.22,200.05z"/>
	<path class="st73" d="M162.19,397.05c-1.65,1.37-0.37,3.44-1.15,4.94c-0.73,1.41-0.17,3.81-2.75,3.94c-0.7-2.3-1.41-4.6-2.11-6.89
		c-0.92-0.74-1.86-1.48-1.03-2.85c0.69-0.39,1.47-0.69,2.05-1.2C160.31,392.27,161.82,393.24,162.19,397.05z"/>
	<path class="st74" d="M182.33,381.91c-2.03,5.71-6.87,6.59-12,7c-0.8-1.83-2.13-3.61,1.51-4.08c2.91-0.38,5.84-1.15,7.93-3.65
		C180.96,379.73,181.72,380.79,182.33,381.91z"/>
	<path class="st75" d="M192.14,176.1c4.31,2.74,9.4,4.19,13.11,7.92c-0.44,0.03-0.88,0.06-1.31,0.09
		c-7.14-4.32-14.82-7.38-22.72-9.97c-0.32-0.21-0.43-0.42-0.32-0.63c0.11-0.2,0.22-0.31,0.33-0.31
		C184.87,174.17,188.5,175.14,192.14,176.1z"/>
	<path class="st76" d="M170.25,178.15c8.71,1.04,16.69,4.08,24.01,8.88c-0.94,0.38-0.79,2.01-2.16,1.9c0.81-2-1.02-2.14-2.02-2.67
		c-5.11-2.71-10.36-5.08-16.1-6.16C172.54,179.82,170.96,179.82,170.25,178.15z"/>
	<path class="st77" d="M361.13,370.97c0.34,0.02,0.68,0.03,1.02,0.05c2.47,5.77,2.1,11.89,2.13,17.95
		c-0.14,0.27-0.18,0.55-0.14,0.85C361.81,383.75,362.64,377.17,361.13,370.97z"/>
	<path class="st78" d="M273.37,377.03c-2.7-4.5-1.72-7.87,2.89-10.02C275.3,370.35,274.34,373.69,273.37,377.03z"/>
	<path class="st79" d="M220.24,199.6c-3.33-3.52-6.67-7.04-10-10.56c0.44-0.02,0.89-0.03,1.33-0.05
		C214.88,192.18,219.4,194.38,220.24,199.6z"/>
	<path class="st57" d="M155.15,396.18c0.34,0.95,0.68,1.9,1.03,2.85c-0.33,0.34-0.66,0.68-1,1.02c-0.58-1.04-1.15-2.09-1.73-3.13
		c-0.75-1.62-1.49-3.24-2.24-4.86c-0.6-1.34-1.19-2.68-1.9-4.27c2.31,0.21,2.09,2.31,3.09,3.3
		C153.32,392.78,154.24,394.48,155.15,396.18z"/>
	<path class="st80" d="M179.23,298.86c1.07-1.75,2.61-0.25,3.89-0.57c0.42-0.71,0.84-0.71,1.27-0.01c0.64,0.25,1.28,0.51,1.92,0.76
		c-1.71,1.38-3.88,1.36-5.85,1.95C177.22,301.96,180.69,298.96,179.23,298.86z"/>
	<path class="st81" d="M150.25,351.96c0.39-0.4,0.78-0.8,1.17-1.2c1.75,1.15,2.96,2.72,4.31,5.5
		C153.03,354.86,151.51,353.58,150.25,351.96z"/>
	<path class="st20" d="M290.27,232.93c-5.22-9.17-7.53-19.37-10.37-29.38c-2.8-9.87-5.74-19.69-8.62-29.54
		c1.93-3.76,5.84-3.24,9.02-3.86c5.76-1.13,11.69-1.4,17.44-2.57c2.91-0.59,3.43,0.22,3.56,2.76c0.1,1.91,0.75,3.79,1.19,5.68
		c0.02,0.07,0.3,0.13,0.43,0.1c0.15-0.03,0.27-0.18,0.4-0.28c2.62,0.63,2.22,3.04,2.65,4.8c2.99,12.23,6.32,24.33,12.36,35.48
		c8.1,14.64,19.18,26.07,35,32.32c5.41,2.14,10.99,3.59,16.93,3.33c2.04-0.09,4.37-0.62,5.97,1.45c-2.84,1.92-6.22-0.03-10.27,1.71
		c8.56,2.38,15.79,0.48,22.84-1.77c7.57-2.41,13.42-7.44,18.99-13.06c5.51-5.56,7.78-12.85,11.82-19.39
		c1.23,13.33,1.56,26.46-1.59,39.49c-2.25,9.32-4.26,18.7-7.64,27.71c-0.82,2.17-1.43,4.41-3.17,6.09c-1.71,1.79-3.94,1.36-6.08,1.5
		c-9.91,0.65-19.43-1.23-28.85-4.1c-25.5-7.74-46.91-22.31-66.6-39.74C299.58,246.26,295.02,239.49,290.27,232.93z"/>
	<path class="st20" d="M274.24,91.97c0.35,0.09,0.69,0.19,1.04,0.28c6.24,1.83,12.33-0.96,18.53-0.6c1.61,0.09,3.25-0.56,4.88-0.56
		c2.13,0,4.18-0.28,5.01-2.41c0.78-1.99-1.36-2.74-2.37-3.93c-0.39-0.46-0.91-0.79-2.17-1.86c12.53,1.9,23.37,5.67,34.11,9.95
		c3.62,1.44-1.92,2.33,0.13,3.3c-0.04,1.86-1.55,2.47-2.84,3.08c-15.89,7.6-23.58,21.02-26.89,37.61c-0.33,1.65,0.13,3.83-2.31,4.44
		c-0.11-0.65-0.21-1.31-0.32-1.96c0.18,4.99-2.77,9.69-1.31,14.82c0.4,1.4,0.34,2.93,0.5,4.41c0.45,3.97-0.32,6.4-5.24,6.85
		c-7.01,0.64-13.93,2.26-20.89,3.5c-2.22,0.39-3.24-0.83-4.3-2.53c-0.54-0.87-0.16-3.59-2.7-2.11c-4.66-7.61-9.05-15.38-15.66-21.63
		c-11.04-10.44-24.71-14.44-39.2-16.39c-5.7-0.77-11.36-2.44-17.23-1.48c-0.96,0.16-1.38-0.73-1.69-1.52
		c0.81-2.18,2.42-3.5,4.56-4.24c10.16-3.54,20.12-7.55,30.83-9.51c7.96-1.46,15.4-5.05,23.08-7.66c1.11-0.38,2.27-1.04,2.69-2.1
		c3.12-7.96,10.42-6.97,16.79-7.91C272.22,91.65,273.26,91.78,274.24,91.97z"/>
	<path class="st26" d="M376.23,253.23c-27.56,0.85-45.66-13.57-58.64-36.28c0.97-0.86,2.16-0.91,3.26-0.54
		c5.29,1.8,10.81,0.83,16.19,1.37c4.94,1.03,6.94,5.91,10.85,8.38c2.6,1.64,5,3.66,7.72,5.2c-4.49-2.73-8.77-5.76-12.46-9.52
		c-1.15-1.17-3.2-2.25-1.55-4.49c1.52-1.04,3.33-1.4,4.99-2.13c8.67-3.81,13.53-10.05,13.39-19.91c-0.04-3.2-1.5-7.06,2.33-9.43
		c3.89,7.86,8.49,15.24,14.06,22.04c8.13,9.94,18.35,13.24,30.61,9.9c2.69-0.73,4.47-0.78,5.74,2.25c1.09-2.47,2.04-4.64,3.4-7.72
		C415.35,230.51,400.37,250.18,376.23,253.23z"/>
	<path class="st23" d="M362.31,185.89c-1.79,2.91-1.26,6.17-0.99,9.21c1.05,12.15-8.66,21.4-20.01,22.88
		c-2.9-0.07-3.32-3.05-5.08-4.12c0.76,1.5,3.38,2.48,2.27,5.09c-7.05,0.19-14.12,0.53-20.92-2.01
		c-6.86-11.76-10.35-24.69-13.24-37.84c-0.24-1.11-0.68-2.18-1.02-3.27c-0.75-9.14-0.78-9.39,8.28-10.31
		c13.55-1.37,27.08-2.94,40.72-3.43c3.44-0.13,4.52,0.94,4.9,4.3C357.99,173.1,359.88,179.58,362.31,185.89z"/>
	<path class="st82" d="M343.24,103.23c1.47-0.27,2.93-0.59,4.4-0.8c6.04-0.86,11.75-0.81,16.44,4.18c3.85,4.1,8.1,7.83,12.53,12.07
		c-10.74,3.83-17.41,10.61-19.1,21.58c-0.26,1.67-1.17,3.58,0.7,5.02c0.49,1.44,0.16,2.66-0.99,3.66c-2.08,2.22-0.97,4.95-1.01,7.42
		c-0.04,2.39-0.43,3.46-3.2,3.59c-10.07,0.47-20.19,0.82-30.18,2.11c-5.51,0.71-7.14-1.05-6.79-6.02c-2.52-3.03-2.06-6.67-2.1-10.21
		c-0.02-1.77,0.43-3.55-0.08-5.31c0.1-3.01,0.22-6.03,1.6-8.82c1.56-0.99,1.7-2.76,2.32-4.26c3.98-9.63,10.2-17.33,19.41-22.44
		C339.05,103.98,340.95,102.89,343.24,103.23z"/>
	<path class="st83" d="M402.7,126.98c0.51,0.31,1.03,0.62,1.54,0.93c7.81,9.38,12.95,20.07,16.16,31.81
		c0.94,3.45,1.21,5.23-3.25,3.67c-1.49-0.52-3.26-0.26-4.9-0.36c-1.3-0.77-1.57,0.5-2.18,1.1c-2.46-6.67-4.59-13.51-9.66-18.82
		c-1.48-1.55-3.06-3.11-4.88-4.2c-4.76-2.87-9.45-1.4-12.19,3.41c-1.88,3.3-2.42,6.84-2.52,10.54c-0.06,2.19,0.75,4.86-3.18,4.76
		c-3.29-0.08-5.53-0.22-5.8-4.61c-0.6-9.43-0.26-18.57,4.36-27.09C384.71,120,393.63,121.64,402.7,126.98z"/>
	<path class="st84" d="M315.91,132.05c0.06,2.84-0.46,5.56-1.59,8.17c0.81,0.99,0.46,2.05,0.18,3.11c-0.64,6.74-1.1,13.51-4.27,19.7
		c-8.67,2.11-8.73,2.11-8.89-6.34c-0.1-5.13,0.01-10.27,0.02-15.41c1.19-4.8,2.07-9.71,3.63-14.38
		c4.84-14.45,14.55-24.56,28.41-30.75c6.33-2.55,10.74,2.23,17.14,4.21c-3.18,0.85-5.22,1.4-7.27,1.95
		c-5.01,2.86-10.3,5.11-14.47,9.47c-5.16,5.4-9.36,11.18-11.4,18.42C317.17,131,316.81,131.75,315.91,132.05z"/>
	<path class="st11" d="M290.27,232.93c4.19,2.12,6.06,6.48,8.87,9.8c9.46,11.16,21.29,19.29,32.91,27.79
		c16.1,11.78,34.42,18.55,53.57,22.8c6.82,1.51,14.33,3.05,21.59,0.68c-0.18,1.78-1.43,2.11-2.87,1.97
		c-2.88-0.27-5.55,0.67-8.35,1.29c0.15,2.28,2.82,2.87,3.14,4.93c-1.65,1.33-3.46,0.79-5.19,0.35c-9.9-2.49-19.84-4.84-29.49-8.23
		c-23.59-10.41-46.64-21.79-67.37-37.35c-2.7-1.6-3.62-6.02-7.97-4.97c-4.99,2.16-8.8,5.78-12.24,9.85
		c-1.05,1.24-1.78,2.84-3.65,3.13c1.81-8.8,7.82-13.85,15.61-17.14c2.56-1.08,5.36-1.58,8.4-2.45
		C294.9,241.12,291.68,237.5,290.27,232.93z"/>
	<path class="st85" d="M376.15,42.1c18.12,10.42,28.61,26.04,32.19,46.58c0.84,4.81,0.66,9.59,0.95,14.38
		c-0.05,1.3-0.1,2.59-0.15,3.89c-1.62,0.82-3.2,2.23-4.01-1c-1.48-5.93-3.25-11.79-4.86-17.69c-0.81-2.99-1.17-5.84,3.46-6.72
		c-4.49,0.39-5.81-2.05-7.12-5.39c-4.91-12.5-13.27-21.98-25.61-27.7c-1.34-0.62-2.58-1.46-3.87-2.19
		c-8.22-5.29-17.3-6.21-26.74-5.29c-3.54,1.43-7.02,2.67-8.26-2.77c5.81-3.29,12.11-2.72,18.37-2.19
		c5.28,0.45,10.47,1.68,15.77,2.03L366.22,38C369.05,40.53,372.72,41.03,376.15,42.1z"/>
	<path class="st86" d="M409.27,177.1c-0.08,2.97,0.02,5.94-1.02,8.84c-2.56,7.16-7.1,8.32-12.8,3.16
		c-3.78-3.42-6.14-7.82-8.13-12.39c-3.3-7.58-4.67-15.52-4.07-23.79c0.16-2.19,0.69-4.25,1.6-6.22c2.41-5.2,6.31-6.19,10.77-2.63
		c5.96,4.75,9.02,11.38,11.31,18.36C408.48,167.16,409.5,172.05,409.27,177.1z"/>
	<path class="st87" d="M410.08,164.14c0.14-1.53,0.96-1.71,2.18-1.1c0.22,3.04,3.03,2.53,4.57,2.66c4.17,0.35,6.03,2.1,5.44,6.29
		c0.21,0.28,0.45,0.79,0.33,0.87c-1.55,0.9-1.32,2.24-1.21,3.73c0.4,5.33-0.19,10.61-1.82,15.68c-1.79,5.55-4.59,10.54-10.92,11.73
		c-7.05,1.33-13.03-1.14-17.89-6.33c-0.67-0.72-1.04-1.69-1.72-2.42c-0.16-0.65-0.72,0.46-0.12,0.18c0.18-0.09,0.23,0.05,0.35,0.32
		c0.44,0.99,0.76,1.89-0.78,2.13c-5.87-7.05-9.99-15.02-12.44-23.86c4.94,0.2,4.51,5.54,7.03,7.08c-2.62-4.68-2.68-6.04-0.07-8.99
		c2.14,6.3,4.71,12.4,9.3,17.36c3.11,3.36,6.68,6.21,11.73,4.82c5.19-1.43,6.35-6,7.13-10.41
		C412.34,177.27,411.45,170.67,410.08,164.14z"/>
	<path class="st44" d="M364.22,293.1c11.59,3.23,23.05,6.96,34.92,9.09c0.3,0.29,0.61,0.57,0.91,0.86c1.07,3.87,1.72,7.61-2.83,9.87
		c-5.46,0.54-10.09-2.53-15.19-3.57c-3.36-0.69-6.55-2.12-9.83-3.17c-0.46-0.14-0.9-0.33-1.33-0.53c-2.47-1.28-5.06-2.2-7.82-2.59
		c-0.92-0.22-1.76-0.58-2.22-1.49C360.44,298.14,363.23,295.99,364.22,293.1z"/>
	<path class="st88" d="M388.48,197.88c1.35-2.61-2.71-3.59-1.74-6.31c2.03,2.18,3.87,4.41,5.96,6.37
		c4.81,4.52,10.68,6.64,16.97,4.64c5.99-1.9,8.09-7.51,9.45-13.17c1.02-4.22,1.49-8.54,1.01-12.85c-0.24-2.17,0.76-3.35,2.13-4.57
		c1.72,9.05,0.59,17.96-2.84,26.29c-4.47,10.89-14.46,13.34-23.95,6.51C392.8,202.87,390.06,200.95,388.48,197.88z"/>
	<path class="st89" d="M372.25,130.08c-2.44,8.66-3.74,17.46-2.59,26.46c0.27,2.14-0.19,3.13-2.46,3.05
		c-1.82-0.06-3.66-0.09-5.46,0.14c-3.79,0.48-5.26-0.98-4.35-4.73c0.95-7.54,3.38-14.5,8.37-20.35
		C367.5,132.62,368.77,129.7,372.25,130.08z"/>
	<path class="st20" d="M428.22,265.9c-2.59,0.48-1.93,2.49-1.96,4.17c0.74,1.92,0.24,3.57-1.12,5.03
		c-0.41,5.04-4.06,9.46-2.84,14.82c-2.38-0.24-4.96,1.01-7.13-0.91c-0.22-0.78-0.83-1.69-0.62-2.31c2.66-7.61,4.25-15.48,5.77-23.37
		c0.34-1.78,1.63-2.41,3.29-2.24C426.49,261.36,428.37,262.68,428.22,265.9z"/>
	<path class="st90" d="M361.35,177.93c-1.58-2.07-1.46-4.65-2-7c-2.11-9.12-2.02-9.01,7.15-9.07c2.85-0.02,4.3,0.68,4.6,3.65
		c0.21,2.13,0.87,4.21,1.33,6.31c0.51,6.33,0.08,7.04-4.41,7.38c-2.02-1.96-1.52-5.31-3.88-7.36c-0.99,1.33,0.46,2.2,0.19,3.2
		C362.33,174.97,363.66,178.31,361.35,177.93z"/>
	<path class="st91" d="M372.25,130.08c-7.11,5.33-11.2,12.55-12.98,21.12c-0.31,1.51-0.34,2.98-1.88,3.8
		c-0.06-2.01-0.12-4.03-0.18-6.04c0.33-1.22,0.66-2.44,0.99-3.66c1.54-13.84,8.24-22.21,19.55-24.17
		C375.87,124.19,374.06,127.13,372.25,130.08z"/>
	<path class="st92" d="M368.02,179.2c4.04-0.93,4.26-4.13,4.41-7.38c3.2,9.78,7.08,19.24,13.78,27.24c2.24,2.67,4.68,5.16,7.38,8.12
		C381.48,200.74,373.23,191.4,368.02,179.2z"/>
	<path class="st93" d="M361.35,177.93c1.61-0.33-0.37-4.34,2.97-2.9c3.2,9.2,6.98,18.07,13.47,25.55c3.16,3.64,6.66,6.86,11.05,9.71
		C378.74,210,365.72,194.38,361.35,177.93z"/>
	<path class="st94" d="M383,172.11c-2.61,4.21,1.09,7.36,2.08,11.4c-4.65-1.99-5.38-7.15-9.04-9.48c-1.45-2.08-1.6-4.58-2.13-6.94
		c-0.4-1.76-2.33-4.46,1.11-4.9c2.42-0.31,6.23-1.83,6.49,3.27C381.62,167.69,382.48,169.89,383,172.11z"/>
	<path class="st22" d="M410.12,312.03c-5.85-1.1-5.85-1.1-3.9-7.04c-0.04-1.68,0.58-3.04,1.99-4.01c1.77-1.32,0.9-4.75,4-5
		c0.95,4.08,1.65,8.35,7.05,8.91C415.31,306.12,413.3,309.83,410.12,312.03z"/>
	<path class="st95" d="M402.7,126.98c-3.67-0.25-6.67-2.63-10.39-3.02c-5.99-0.63-11.05,1.54-16.09,4.16
		c5.57-8.94,11.83-10.52,20.58-5.21c0.37,0.23,0.97,0.08,1.47,0.11C399.74,124.34,401.22,125.66,402.7,126.98z"/>
	<path class="st96" d="M315.91,132.05c4.42-14.24,12.69-24.94,27.36-29.75c0.06,0.31,0.05,0.62-0.03,0.93
		c-12.55,5.66-21.55,14.52-25.38,28.09C317.69,131.95,317.49,134.4,315.91,132.05z"/>
	<path class="st82" d="M310.23,163.03c0.26-6.86,2.81-13.28,3.79-20c1.42,4.26,0.33,8.72,1.06,13.03
		C314.62,159.19,317.21,164.44,310.23,163.03z"/>
	<path d="M408.2,300.98c-0.15,1.59-0.71,2.98-1.99,4.01c-1.91,0.41-2.9-0.95-4.02-2.08c-0.05-0.33-0.12-0.65-0.14-0.98
		c-0.14-1.61-3.17-2.34-1.82-4.04c1.47-1.84,4.04-0.93,6.1-0.78C408.79,297.29,408.02,299.46,408.2,300.98z"/>
	<path class="st97" d="M315.08,156.06c-1.85-4.22-0.41-8.71-1.06-13.03c0.1-0.94,0.2-1.87,0.3-2.81c1.17-0.24,1.91-0.14,1.61,1.43
		c-0.9,4.8-0.25,9.6,0.1,14.4l-0.48,0.02L315.08,156.06z"/>
	<path class="st98" d="M237.15,84.9c-0.76-1.07-2.03-0.54-3-0.94c3.36-1.73,7.02-0.56,10.53-1.09
		C242.31,84.15,239.85,84.96,237.15,84.9z"/>
	<path class="st20" d="M437.23,259.14c-0.49-1.56-1.85-2.13-3.25-2.69c3.89-0.72,5.38,2.12,7.12,4.59
		C439.64,260.76,437.55,261.75,437.23,259.14z"/>
	<path class="st99" d="M324.2,83.06c0.62-0.27,1.24-0.55,1.86-0.82c2.36,0.68,4.61,1.56,6.86,3.79
		C329.46,85.43,326.73,84.58,324.2,83.06z"/>
	<path class="st100" d="M193.4,103.19c-2.29,1.84-5.04,2.7-7.87,3.49c1.93-2.03,4.13-3.61,6.81-4.51
		C192.69,102.51,193.05,102.85,193.4,103.19z"/>
	<path class="st101" d="M407.88,210.66c-2.37,1.75-4.2,1.9-6.42-0.09C403.72,209.76,405.55,209.8,407.88,210.66z"/>
	<path class="st28" d="M410.12,312.03c2.12-3.56,3.47-8.12,9.14-7.13c2.51,0.5,4.88,1.54,6.57,3.34c3.56,3.8,7.3,6.73,12.97,5.83
		c1.8-0.29,2.45,0.77,1.53,2.44c-0.72,1.31-1.49,2.59-2.31,3.84c-4.93,7.51-5.55,7.58-11.55,1.33c-1.52-1.58-3.23-2.86-5.25-3.72
		c-2-1.94-4.65-2.71-7.06-3.92C412.59,313.82,411.2,313.22,410.12,312.03z"/>
	<path class="st102" d="M435.09,327.13c2.33-2.82,4.3-5.25,5.75-8.06c0.82-1.58,2.09-2.27,4.14-1.73c4.77,1.24,5.2,2.07,2.55,6.16
		C443.4,329.86,443.4,329.86,435.09,327.13z"/>
	<path class="st103" d="M459.11,322.83c-1.92,3.01-3.48,6.53-6.45,8.98c-2,1.65-3.06-1.16-4.72-1.44c-0.44-0.07-1.19-0.59-1.15-0.8
		c0.58-3.5,2.76-6.27,5.09-8.57c1.96-1.94,4.55,0.31,6.86,0.65C458.88,321.67,458.94,322.23,459.11,322.83z"/>
	<path class="st73" d="M454.61,331.17c4.46-1.83,3.45-8.6,9.11-6.77c2.04,0.66,4.7,2.71,2.73,5.78
		C463.61,334.63,459.74,333.01,454.61,331.17z"/>
	<path class="st104" d="M479.29,265.94c-3.56,2.06-7.44,0.68-11.16,1.02c-0.66,0.06-1.38-0.18-1.49-0.98c-0.14-1,0.61-1.52,1.4-1.76
		c3.31-1.01,6.54-2.37,10.11-2.18C478.53,263.34,478.91,264.64,479.29,265.94z"/>
	<path class="st105" d="M448.73,267.86c-2.74,0.2-4.29,0.22-4.72-1.72c-0.53-2.39,1.6-2.07,2.8-2.48c4.65-1.61,9.28-3.39,14.27-3.64
		c1.67-0.08,3.52-0.11,3.92,2.06c0.4,2.18-1.41,2.98-2.95,3.31C457.26,266.43,452.4,267.2,448.73,267.86z"/>
	<path class="st106" d="M425.14,275.09c-0.17-1.8-0.03-3.52,1.12-5.03c3.78-0.35,7.56-0.73,11.34-1.04
		c2.28-0.19,4.78,0.11,5.09,2.75c0.37,3.06-2.47,3.77-4.71,3.99C433.7,276.19,429.37,276.25,425.14,275.09z"/>
	<path class="st107" d="M125.33,68.32c-3.26,2.61-3.92,7.07-6.94,9.84c-4.27,4.13-5.72,9.78-8.05,14.96c0,0,0.12-0.05,0.12-0.05
		c-5.65,6.17-5.7,14.27-7.1,21.76c-2.59,13.9-2.26,27.94-0.02,42.75c-1.5-1.87-1.79-3.28-2.06-4.75
		c-2.38-13.17-2.01-26.33,0.14-39.46c2.26-13.83,7.25-26.78,13.46-39.25c0.9-1.81,1.04-5.32,4.8-4.37c0.25,0.06,0.57-0.16,0.86-0.24
		c-3.56-4.64,3-6.7,2.68-10.51c2.98-5.86,8.21-8.84,14.1-10.96c3.75,2.23,3.53,4.54,0.33,7.17c-0.76,0.62-2.61,1.17-1.34,2.9
		c-0.71,0.59-1.41,1.18-2.12,1.77C130.16,61.56,127.7,64.89,125.33,68.32z"/>
	<path class="st63" d="M192.32,42.15c-0.83,2.93-3.24,2.08-4.95,1.67c-15.15-3.67-29.25-0.88-42.47,6.89
		c-4.73,2.78-3.65-2.64-5.71-3.54c7.08-5.33,14.84-8.44,23.9-7.27c1.54,1.19,0.95-0.48,1.26-0.94c9.47-2.66,18.54-0.91,27.46,2.5
		C192,41.7,192.16,41.93,192.32,42.15z"/>
	<path class="st108" d="M192.32,40.02c1.31-0.83,2.55-1.04,4.17-0.53c5.74,1.81,10.7,5.06,15.71,8.21c1.45,0.91,2.66,2.44,1.77,4.19
		c-1.21,2.38-2.89,0.42-4.21-0.09c-4.15-1.59-8.13-3.65-12.35-4.99c-2.62-0.84-4.06-2.39-5.1-4.65c0,0-0.25-0.3-0.25-0.3
		C191.66,41.18,191.75,40.57,192.32,40.02z"/>
	<path class="st37" d="M192.32,40.02c-0.08,0.61-0.16,1.22-0.25,1.84c-9.14-1.88-18.35-3.06-27.7-2.89
		c0.09-0.96-1.46-2.63,0.52-2.75c9.06-0.57,18.15-1.13,26.83,2.49C192.04,38.84,192.12,39.57,192.32,40.02z"/>
	<path class="st109" d="M163.11,39.91c-8.44,0.88-16.19,4-23.9,7.27c-0.66-0.04-1.31-0.09-1.97-0.13l0.05,0.05
		c-0.36-1.24-0.06-2.05,1.21-2.7c6.36-3.25,12.91-5.96,19.97-7.25C160.75,36.73,162.91,36.74,163.11,39.91z"/>
	<path class="st110" d="M137.32,48.03c-4.64,3.73-10.54,5.84-14.1,10.96c-0.78,0.58-1.57,1.16-2.35,1.73
		c4.83-5.34,8.15-12.49,16.42-13.63c0,0-0.05-0.05-0.05-0.05C137.2,47.38,137.22,47.71,137.32,48.03z"/>
	<path class="st111" d="M223.34,57.63c-3.08-1.61-7.49-1.61-8.37-6.62C219.46,52.45,219.46,52.45,223.34,57.63z"/>
	<path class="st112" d="M509.19,124.02c-0.01,0.35-0.03,0.69-0.04,1.04c-2.39,0.68-4.71,1.19-7.23,0.23
		c-3.75-1.42-7.56-0.69-11.34,0.35c2.75-2.24,5.56-3.19,9.13-2.11c3.08,0.94,6.41,1.51,9.52-0.34c0.31,0.2,0.41,0.39,0.29,0.56
		C509.41,123.93,509.3,124.02,509.19,124.02z"/>
	<path class="st113" d="M509.19,124.02c0.01-0.27,0.03-0.55,0.05-0.82c2.24-0.54,4.08-1.84,5.93-3.13c1.81-0.88,3.25-2.38,5.16-3.11
		c1.09,0.85,0.74,2.06,0.78,3.17C516.92,120.79,513.53,123.86,509.19,124.02z"/>
	<path class="st114" d="M483.8,133.76c-2.23-1.12,2.63-4.29-1.71-4.91c-1.02-0.15,0.24-0.78,0.61-0.93
		c1.93-0.76,3.73-2.02,7.23-1.73C485.33,127.62,485.25,131.2,483.8,133.76z"/>
	<path class="st115" d="M520.32,116.96c-0.58,2.92-2.91,2.94-5.16,3.11c1.37-2.04,2.73-4.07,4.1-6.11
		C519.61,114.96,519.97,115.96,520.32,116.96z"/>
	<path class="st116" d="M454.41,142.62c-1.64,0.07-3.53,1.65-4.95-0.23c-0.55-0.73-0.11-1.62,0.67-2.07
		C452.55,138.91,452.67,142.24,454.41,142.62z"/>
	<path class="st117" d="M477.78,130.85c-2.23,0.8-4.45,1.61-6.68,2.41C472.85,131.12,475.13,130.38,477.78,130.85z"/>
	<path class="st118" d="M366.27,38.04c-3.1,2.85-6.27,0.47-9.35,0.01c-8.28-1.23-16.53-1.18-24.78,0.15
		c-0.62-0.1-1.18-1.54-1.86-0.08c-0.45,0.48-0.7,1.26-1.33,1.43c-6.71,1.81-13.03,4.74-19.63,6.84c-1.25,0.4-4.05,1.42-2.88-2.13
		c16.51-10.06,34.05-14.15,53.13-9.12C361.93,35.75,364.5,36.03,366.27,38.04z"/>
	<path class="st85" d="M306.45,44.26c0.45,3.03,2.43,1.03,3.27,0.69c6.72-2.69,13.44-5.33,20.55-6.83c1.32,2.8,1.79,4.41-2.5,5.43
		c-7.46,1.78-14.73,4.5-21.86,7.37c-2.97,1.2-4.46,0.82-5.71-1.85C301.6,46.56,303.56,44.8,306.45,44.26z"/>
	<path class="st119" d="M340.39,40.97c9.73-2.42,18.68-0.12,27.22,4.55c0.04,0.02-0.03,0.31-0.11,0.43
		c-0.09,0.13-0.25,0.21-0.38,0.32C358.62,42.49,349.65,41,340.39,40.97z"/>
	<path class="st120" d="M361.19,300.91c0.37,0.8,1.06,1.04,1.87,1.05c2.62,1.31,5.56,1.79,8.2,3.06l-0.08-0.05
		c7.44,3.18,15.34,4.92,22.97,7.5c1.11,0.38,2.2,0.69,3.04,1.56c-4.33,9.74-11.42,17.54-18.07,25.65
		c-19.78-6.9-39.14-15.04-59.48-20.31c-1.09-0.28-2.26-0.26-3.39-0.38c2.66-1.5,3.03-5.14,5.97-6.39c5.84-0.2,11.07,2.12,16.29,4.23
		c3.45,1.4,5.88,1.11,8.15-2.07c3.38-4.73,8.39-8.06,11.59-13.01C358.89,300.75,359.87,300.02,361.19,300.91z"/>
	<path class="st121" d="M376.15,42.1c-3.82-0.14-7.99,0.59-9.93-4.11C370.06,38.09,373.04,40.25,376.15,42.1z"/>
	<path class="st122" d="M397.18,314.03c-8.68-2.98-17.93-4.34-26.01-9.06c8.89,1.95,17.46,4.96,26.04,7.95
		C397.2,313.29,397.19,313.66,397.18,314.03z"/>
	<path class="st123" d="M361.19,300.91c-4.72,5.17-9.62,10.19-14.09,15.56c-2.2,2.65-4.17,4.01-7.46,2.2
		c-5.46-3-11.79-3.54-17.42-6.07c0.22-1.93,1.86-2.8,2.99-4.05c0.49-1.31,0.57-2.78,1.48-3.94c3.39-4.7,3.4-5-1.53-7.92
		c-7.74-4.57-15.54-9.05-23.11-13.92c-5.79-3.72-6.09-7.63-0.85-12.56c-1.91-0.46-3.95-0.49-5.7-1.62c-0.42-0.34-0.66-0.77-0.75-1.3
		c0.32-3.9-0.63-8.08,2.51-11.36c15.55,10.95,31.98,20.37,49.05,28.76c5.93,2.91,11.86,5.79,17.92,8.41
		C365.69,296.67,361.78,298.14,361.19,300.91z"/>
	<path class="st123" d="M274.24,91.97c-2.74,0.62-5.45,1.45-8.22,1.81c-4.47,0.58-8.75,1-10.18,6.51c-0.66,2.53-3.45,2.77-5.57,3.65
		c-14.86,6.19-31.08,7.91-45.98,14.03c-3.78,1.55-7.5,3.11-10.97,5.25c-0.08-2.04-0.27-3.66-3.17-2.66
		c-5.17,1.79-7.7,5.16-6.88,10.44c0.83,5.33-2.93,7.95-6.25,10.4c-2.85,2.1-4.85,4.36-5.67,7.73c-0.57,2.34-1.7,4.13-3.9,5.45
		c-2.8,1.67-4.07,4.57-5.38,7.49c-0.55,1.24-1.91,5.15-3.97,0.66c-1.71-2.35-1.38-4.82-0.44-7.32c1.85-2.11-0.22-5.69,2.75-7.37
		c0.15-0.08,0.35-0.12,0.43-0.24c2.24-3.35,6.24,2.61,8.18-1.47c1.36-2.85,2.54-5.53,5.52-7.33c2.52-1.52,4.33-4.07,0.98-6.82
		c-2.03-1.67-0.19-2.56,0.68-3.57c4.85-5.62,10.85-9.88,17.38-13.14c15.88-7.92,32.02-15.37,48.91-20.94
		c8.32-2.75,16.96-4.38,25.8-4.49C270.53,90.01,272.63,90.2,274.24,91.97z"/>
	<path class="st24" d="M297.25,255.94c-1.23,3.85-0.31,8.06-2.02,11.83c-0.37,2.82-3.48,3.98-4.03,6.69
		c-0.15,0.41-0.33,0.81-0.52,1.2c-1.04,1.69-1.17,3.63-1.45,5.52c-0.35,6.85,4.1,10.91,8.81,14.65c3.15,2.5,5.94,5.21,8.16,8.58
		c1.06,1.61,0.86,2.39-1.07,2.63c-5.42-1.36-9.22-5.32-13.56-8.41c-4.13-4.6-9.63-7.46-14.4-11.24c-1.98-1.57-3.71-3.22-4.95-5.4
		l0.03,0.04c-2.29-7.14,2.19-18.75,9.44-24.41c1.56-1.22,3.26-2.23,5.01-3.17c1.46-0.78,3.02-1.54,2.62-3.67
		C294.11,249.17,294.47,254.41,297.25,255.94z"/>
	<path class="st124" d="M289.23,281.17c-2.87-2.61,0.09-4.23,1.06-6.18c1.84,2.4,4.11,4.23,6.72,5.81
		c9.85,5.95,18.8,13.2,28.21,19.78c1.48,1.03,3.19,2.09,2.22,4.42c-0.29,1.47-0.84,2.77-2.23,3.55
		C313.49,299.06,302.27,288.92,289.23,281.17z"/>
	<path class="st125" d="M289.3,250.78c3.54,1.72,2,3.13-0.39,4.15c-12.01,5.1-16.03,15.05-16.67,27.11
		c-4.34-4.76-1.11-9.62-0.14-14.43c0.18-0.92,0.74-1.76,1.12-2.64C277.44,258.94,281.94,253.23,289.3,250.78z"/>
	<path class="st126" d="M292.09,298.24c4.12,3.27,8.41,6.27,13.04,8.79c0.76,1.51,2.94,1.59,3.46,3.56
		c-0.44,0.08-0.99,0.36-1.24,0.19c-9.88-6.87-19.74-13.76-29.59-20.69c-0.78-0.55-1.69-1.09-1.78-2.22
		c0.75-0.53,1.57-0.67,2.29-0.08C282.77,291.41,287.97,294.11,292.09,298.24z"/>
	<path class="st125" d="M292.09,298.24c-5.75-2.87-10.12-7.88-16.11-10.37c-1.93-1.53-3.85-3.07-3.77-5.89
		c5.45,4.06,10.92,8.1,16.34,12.19C290,295.27,291.51,296.36,292.09,298.24z"/>
	<path class="st127" d="M181.24,173.21c-0.03,0.31-0.04,0.62-0.01,0.94c-9.64-1.59-19.28-1.3-28.92-0.01
		c-0.28-0.43-0.31-0.88-0.1-1.35c3.55-1.89,2.22-5.89,3.73-8.66c0.41-0.34,0.84-0.38,1.29-0.1c0.39,7.85,0.39,7.85,8.22,7.75
		C170.76,171.72,176.05,171.89,181.24,173.21z"/>
	<path class="st128" d="M258,173.84c-3.55,1.89-7.46,1.84-11.05,2.9c-0.38,0.11-1.12-0.55-1.48-1.02c-0.16-0.21,0.07-0.95,0.34-1.23
		C247.09,173.12,255.91,172.58,258,173.84z"/>
	<path class="st129" d="M242.85,177.59c-3.09,0.72-5.32,1.25-7.57,1.75c-0.9,0.2-1.71-0.07-1.93-1.02c-0.28-1.18,0.67-1.37,1.5-1.37
		C237.24,176.95,239.73,174.51,242.85,177.59z"/>
	<path class="st130" d="M303.01,316.24c-1.55,3.38-1.97,6.95-1.88,10.6C299.36,322.91,299.95,319.37,303.01,316.24z"/>
	<path class="st131" d="M157.22,164.03l-0.38,0.03l-0.38-0.01c-2.22-3.21-0.48-6.11,0.7-9.06l0.33,0.1
		c0.21-0.03,0.43-0.06,0.64-0.09c0,2.57,0,5.15,0,7.72C157.82,163.16,157.52,163.6,157.22,164.03z"/>
	<path class="st6" d="M110.33,93.12c0.62-5.86,3.87-10.53,6.91-15.29c0.06-0.09,0.74,0.21,1.13,0.33
		C115.7,83.15,113.02,88.14,110.33,93.12z"/>
	<path class="st132" d="M125.33,68.32c1.83-4,4.03-7.61,8.87-8.45C131.24,62.69,128.28,65.51,125.33,68.32z"/>
	<path class="st23" d="M157.16,155c-0.23,3.02-0.47,6.04-0.7,9.06c-0.08,1.65-0.41,3.34-0.2,4.96c0.42,3.19-1.25,4.11-3.96,4.18
		c-4.28,1.48-8.26,4.02-13.04,3.77c-1.99-4.09-0.02-7.16,2.35-10.37c2.32-3.15,5.92-5.05,7.67-8.82
		C150.73,154.63,155.06,157.57,157.16,155z"/>
	<path class="st133" d="M150.33,179.95c0.74,0.21,1.47,0.42,2.21,0.63c-0.39,0.43-0.71,1.04-1.2,1.25c-0.99,0.42-2.29-0.02-3.04,1.1
		c-12.52,2.16-22.77,8.48-31.27,17.65c-3.57,3.85-6.51,8.3-9.74,12.48c-0.91-4.64,2.7-7.15,4.89-10.32c0.67-3.5,3.33-5.2,6.14-6.76
		c0.33-0.35,0.65-0.7,0.98-1.05c6.09-7.53,14.65-10.97,23.43-13.92C145.1,180.21,147.56,178.54,150.33,179.95z"/>
	<path class="st134" d="M150.33,179.95c-11.97,1.62-21.77,7.74-31.03,14.98c-2.18-5.3,3.35-4.01,5.09-5.95
		c0.52-1.82,1.58-2.81,3.59-2.34c6.75-3.77,13.74-6.89,21.43-8.18c0.84-0.14,1.59-0.43,2,0.63
		C151.05,179.38,150.69,179.66,150.33,179.95z"/>
	<path class="st135" d="M127.98,186.63c-1.2,0.78-2.39,1.56-3.59,2.34c-0.69-0.29-3.95,1.23-1.23-1.48
		c3.29-3.28,7.34-5.61,11.44-7.8c1.59-0.85,3.1-1.82,4.65-2.74c4.43-0.96,8.47-3.29,13.04-3.77c0.02,0.32,0.02,0.63,0,0.95
		c-7.16,2.68-14.63,4.66-20.98,9.18C130.03,184.23,128.24,184.67,127.98,186.63z"/>
	<path class="st136" d="M118.32,195.98c-2.05,2.25-4.1,4.5-6.14,6.76C111.09,198.29,114.21,194.86,118.32,195.98z"/>
	<path class="st137" d="M158.13,155.01c-0.21,0.05-0.43,0.08-0.64,0.09c0.62-3.26,1.25-6.52,1.9-9.93c1.35,0.89,0.83,1.98,1.05,2.86
		C158.57,149.99,160.3,153.15,158.13,155.01z"/>
	<path class="st138" d="M192.78,86.9c1.88-1.71,3.75-3.43,5.63-5.14c0.21,3.7-3.58,4.1-5.19,6.3
		C193.08,87.67,192.93,87.29,192.78,86.9z"/>
	<path class="st139" d="M174.59,111.63c-1.24,2.18-2.48,4.36-4.39,7.7C170.34,115.03,172.42,113.18,174.59,111.63z"/>
	<path class="st140" d="M282.12,349.83c0.34-0.31,0.67-0.62,1.01-0.93c9.48-6.05,19.25-11.08,31.06-10.03
		c3.48,0.31,6.87,0.8,10.17,1.91c-2.3,0.91-4.69,1.4-7.18,1.29c-1.45-0.25-2.7,0.32-3.92,0.97c-2.65,3.14-6.42,4.38-10.03,5.89
		c-5.08,1.61-6.84,6.5-9.92,10.08c-1.02-3.59-3.26-5.29-7.06-4.58C285.14,352.65,282.35,352.39,282.12,349.83z"/>
	<path class="st141" d="M303.23,348.93c2.49-3.42,6.57-4.13,10.03-5.89c-0.25,2.98,1.8,4.89,3.46,6.83c2.12,2.46,1.8,4.83,0.39,7.27
		c-1.49,2.58-3.59,4.49-6.83,3.76c-2.22-0.5-4.37-1.39-6.47-2.29c-1.41-0.6-2.12-2.11-1.08-3.23
		C304.73,353.22,303.71,351.12,303.23,348.93z"/>
	<path class="st142" d="M174.95,236.57c1.26,7.52-0.73,11.99-6.35,14.57c-5.11,2.34-10.67,1.06-14.35-3.32
		c-3.45-4.1-3.7-10.53-0.59-14.83c3.42-4.73,8.95-6.03,15.94-3.54c-1.94,2.37-5.71,4.47-2.38,8
		C169.89,240.28,172.55,238.83,174.95,236.57z"/>
	<path d="M229.28,215.07c-2.57-2.97-3.57-6.81-5.59-10.09C227.52,207.26,228.5,211.11,229.28,215.07z"/>
	<path class="st143" d="M215.25,208.93c0.7-0.68,1.23-0.23,1.56,0.36c8.25,14.75,10.58,30.27,5.9,46.66
		c-0.13,0.44-0.42,0.87-0.74,1.21c-0.09,0.09-0.53-0.14-0.82-0.23c-0.33-3.9,0.93-7.57,1.6-11.33c0.23-5.61-0.07-11.19-1-16.72
		C220.92,221.79,217.02,215.71,215.25,208.93z"/>
	<path class="st144" d="M184.39,298.28c-0.42,0-0.85,0.01-1.27,0.01c1.25-2.72,4.8-2.06,6.36-4.32c7.13-3.5,12.87-8.86,18.74-14.04
		c-1.87,5.14-6.49,7.74-10.41,10.86C193.79,293.98,189.3,296.56,184.39,298.28z"/>
	<path class="st145" d="M215.25,208.93c2.95,6.13,5.81,12.28,6.85,19.1c-0.3,0.47-0.61,0.47-0.91,0.01
		c-2.11-6.5-4.18-13.01-7.5-19.03C214.21,208.98,214.73,208.95,215.25,208.93z"/>
	<path class="st146" d="M208.18,279.96c2.52-5.56,7.19-9.92,8.84-15.96c0.42-0.5,0.85-0.99,1.27-1.48
		C216.91,269.49,213.85,275.48,208.18,279.96z"/>
	<path class="st147" d="M222.98,246.01c-0.61,3.64-1.21,7.28-1.82,10.92c-0.31,0.04-0.61,0.11-0.91,0.2
		c0.09-3.82,0.71-7.53,2.04-11.12C222.52,246.01,222.75,246.01,222.98,246.01z"/>
	<path class="st148" d="M222.98,246.01l-0.34,0c0,0-0.34,0-0.34,0c-0.37-5.99-0.74-11.99-1.1-17.98c0.3,0,0.61,0,0.91-0.01
		C223.21,233.98,223.85,239.96,222.98,246.01z"/>
	<path class="st149" d="M379.06,239.35c-2.15-0.13-4.31-0.21-6.46-0.42c-1.06-0.11-1.94-0.68-1.61-1.95
		c0.27-1.03,1.21-1.04,2.03-0.88c8.57,1.62,16.47-0.33,23.9-4.54c1.31-0.74,2.27-0.61,2.89,0.61c0.86,1.68-0.86,1.91-1.71,2.38
		C392.19,237.8,385.91,239.69,379.06,239.35z"/>
	<path class="st150" d="M338.5,218.96c-1.17-2.75-4.01-4.45-4.83-8.06c4.27,0.86,4.74,5.36,7.64,7.08
		c4.64,6.51,11.88,10.06,17.68,15.3C350.47,230.83,344.53,224.83,338.5,218.96z"/>
	<path class="st151" d="M318.76,173.28c3.24,8.84,6.15,17.83,10.32,26.83C325.05,198.29,318.82,182.11,318.76,173.28z"/>
	<path class="st152" d="M402.96,178.82c1.79,1.19,2.27,2.65-0.18,3.22c-1.86,0.43-4.39,3.79-5.88-0.73
		c-2.12-6.44-4.43-12.81-6.68-19.21c-0.93-2.65-1.94-5.27-2.83-7.93c-0.55-1.66-1.06-3.46,1.85-3.18c3.36,1.28,5.15,3.72,6.12,7.2
		c1.91,6.83,4.71,13.38,6.55,20.23C402.06,178.93,402.42,179.18,402.96,178.82z"/>
	<path class="st153" d="M402.96,178.82c0,0.48,0.18,1.26-0.04,1.39c-1.51,0.9-1.45-0.55-1.72-1.32c-2.38-6.81-4.65-13.66-7.13-20.43
		c-0.91-2.49-0.69-6.23-5.3-5.55c-0.72,0.11,0.43-1.21,0.47-1.92c0,0-0.1,0.03-0.1,0.03c2.98-1.56,4.57-0.23,5.46,2.6
		c1.46,4.65,2.92,9.31,4.7,13.86C401.53,170.93,402.78,174.7,402.96,178.82z"/>
	<path class="st154" d="M399.31,167.47c-2.86-3.96-3.6-8.77-5.12-13.25c-0.93-2.76-2.36-3.7-5.04-3.21
		c4.13-2.47,4.32-2.53,5.58,1.44C396.32,157.44,398.88,162.13,399.31,167.47z"/>
	<path class="st155" d="M371.26,305.02c-3.11-0.02-5.8-1.16-8.2-3.06C366.2,301.89,368.84,303.15,371.26,305.02z"/>
	<path class="st156" d="M327.44,305c-0.01-1.52-0.96-2.32-2.14-3.09c-11.1-7.33-21.31-15.99-32.92-22.55
		c-1.91-1.08-2.78-2.24-2.08-4.36c0,0-0.1,0.05-0.1,0.05c1.13-3.15,3.5-5.23,6.14-7.07c3.17,0.17,5.94,1.09,8.93,5.2
		c-5.18-3.28-5.12,0.33-6.24,2.32c-1.62,2.87,0.15,4.25,2.31,5.54c8.4,5.01,16.78,10.07,25.19,15.06
		C332.27,299.5,332.38,300.25,327.44,305z"/>
	<path class="st157" d="M296.33,267.97c-2.05,2.36-4.09,4.71-6.14,7.07c-0.17-3.7,2.66-5.33,5.04-7.27
		C295.59,267.83,295.96,267.9,296.33,267.97z"/>
	<path class="st158" d="M165.49,245.75c-0.3,1.84-1.25,2.49-2.77,2.36c-1.28-0.11-2.19-0.79-2.28-2.09
		c-0.11-1.66,1.14-2.31,2.5-2.38C164.42,243.58,165.27,244.53,165.49,245.75z"/>
</g>
</svg>
